solid AutoCAST10
 facet normal -0.005 0 0
   outer loop
     vertex -0.05 0.025 0
     vertex -0.05 -0.025 0
     vertex -0.05 0.025 0.1
   endloop
 endfacet
 facet normal -0.005 0 0
   outer loop
     vertex -0.05 -0.025 0
     vertex -0.05 -0.025 0.1
     vertex -0.05 0.025 0.1
   endloop
 endfacet
 facet normal 0 -0.0025 0
   outer loop
     vertex -0.05 -0.025 0
     vertex -0.025 -0.025 0
     vertex -0.05 -0.025 0.1
   endloop
 endfacet
 facet normal 0 -0.0025 0
   outer loop
     vertex -0.025 -0.025 0
     vertex -0.025 -0.025 0.1
     vertex -0.05 -0.025 0.1
   endloop
 endfacet
 facet normal -0.0025 0 0
   outer loop
     vertex -0.025 -0.025 0
     vertex -0.025 -0.05 0
     vertex -0.025 -0.025 0.1
   endloop
 endfacet
 facet normal -0.0025 0 0
   outer loop
     vertex -0.025 -0.05 0
     vertex -0.025 -0.05 0.1
     vertex -0.025 -0.025 0.1
   endloop
 endfacet
 facet normal 0 -0.005 0
   outer loop
     vertex -0.025 -0.05 0
     vertex 0.025 -0.05 0
     vertex -0.025 -0.05 0.1
   endloop
 endfacet
 facet normal 0 -0.005 0
   outer loop
     vertex 0.025 -0.05 0
     vertex 0.025 -0.05 0.1
     vertex -0.025 -0.05 0.1
   endloop
 endfacet
 facet normal 0.0025 0 0
   outer loop
     vertex 0.025 -0.05 0
     vertex 0.025 -0.025 0
     vertex 0.025 -0.05 0.1
   endloop
 endfacet
 facet normal 0.0025 0 0
   outer loop
     vertex 0.025 -0.025 0
     vertex 0.025 -0.025 0.1
     vertex 0.025 -0.05 0.1
   endloop
 endfacet
 facet normal 0 -0.0025 0
   outer loop
     vertex 0.025 -0.025 0
     vertex 0.05 -0.025 0
     vertex 0.025 -0.025 0.1
   endloop
 endfacet
 facet normal 0 -0.0025 0
   outer loop
     vertex 0.05 -0.025 0
     vertex 0.05 -0.025 0.1
     vertex 0.025 -0.025 0.1
   endloop
 endfacet
 facet normal 0.005 0 0
   outer loop
     vertex 0.05 -0.025 0
     vertex 0.05 0.025 0
     vertex 0.05 -0.025 0.1
   endloop
 endfacet
 facet normal 0.005 0 0
   outer loop
     vertex 0.05 0.025 0
     vertex 0.05 0.025 0.1
     vertex 0.05 -0.025 0.1
   endloop
 endfacet
 facet normal 0 0.0025 0
   outer loop
     vertex 0.05 0.025 0
     vertex 0.025 0.025 0
     vertex 0.05 0.025 0.1
   endloop
 endfacet
 facet normal 0 0.0025 0
   outer loop
     vertex 0.025 0.025 0
     vertex 0.025 0.025 0.1
     vertex 0.05 0.025 0.1
   endloop
 endfacet
 facet normal 0.0025 0 0
   outer loop
     vertex 0.025 0.025 0
     vertex 0.025 0.05 0
     vertex 0.025 0.025 0.1
   endloop
 endfacet
 facet normal 0.0025 0 0
   outer loop
     vertex 0.025 0.05 0
     vertex 0.025 0.05 0.1
     vertex 0.025 0.025 0.1
   endloop
 endfacet
 facet normal 0 0.005 0
   outer loop
     vertex 0.025 0.05 0
     vertex -0.025 0.05 0
     vertex 0.025 0.05 0.1
   endloop
 endfacet
 facet normal 0 0.005 0
   outer loop
     vertex -0.025 0.05 0
     vertex -0.025 0.05 0.1
     vertex 0.025 0.05 0.1
   endloop
 endfacet
 facet normal -0.0025 0 0
   outer loop
     vertex -0.025 0.05 0
     vertex -0.025 0.025 0
     vertex -0.025 0.05 0.1
   endloop
 endfacet
 facet normal -0.0025 0 0
   outer loop
     vertex -0.025 0.025 0
     vertex -0.025 0.025 0.1
     vertex -0.025 0.05 0.1
   endloop
 endfacet
 facet normal 0 0.0025 0
   outer loop
     vertex -0.025 0.025 0
     vertex -0.05 0.025 0
     vertex -0.025 0.025 0.1
   endloop
 endfacet
 facet normal 0 0.0025 0
   outer loop
     vertex -0.05 0.025 0
     vertex -0.05 0.025 0.1
     vertex -0.025 0.025 0.1
   endloop
 endfacet
 facet normal 0 0 -0.0025
   outer loop
     vertex -0.05 -0.025 0
     vertex -0.05 0.025 0
     vertex 0 0 0
   endloop
 endfacet
 facet normal 0 0 -0.000625
   outer loop
     vertex -0.025 -0.025 0
     vertex -0.05 -0.025 0
     vertex 0 0 0
   endloop
 endfacet
 facet normal 0 0 -0.000625
   outer loop
     vertex -0.025 -0.05 0
     vertex -0.025 -0.025 0
     vertex 0 0 0
   endloop
 endfacet
 facet normal 0 0 -0.0025
   outer loop
     vertex 0.025 -0.05 0
     vertex -0.025 -0.05 0
     vertex 0 0 0
   endloop
 endfacet
 facet normal 0 0 -0.000625
   outer loop
     vertex 0.025 -0.025 0
     vertex 0.025 -0.05 0
     vertex 0 0 0
   endloop
 endfacet
 facet normal 0 0 -0.000625
   outer loop
     vertex 0.05 -0.025 0
     vertex 0.025 -0.025 0
     vertex 0 0 0
   endloop
 endfacet
 facet normal 0 0 -0.0025
   outer loop
     vertex 0.05 0.025 0
     vertex 0.05 -0.025 0
     vertex 0 0 0
   endloop
 endfacet
 facet normal 0 0 -0.000625
   outer loop
     vertex 0.025 0.025 0
     vertex 0.05 0.025 0
     vertex 0 0 0
   endloop
 endfacet
 facet normal 0 0 -0.000625
   outer loop
     vertex 0.025 0.05 0
     vertex 0.025 0.025 0
     vertex 0 0 0
   endloop
 endfacet
 facet normal 0 0 -0.0025
   outer loop
     vertex -0.025 0.05 0
     vertex 0.025 0.05 0
     vertex 0 0 0
   endloop
 endfacet
 facet normal 0 0 -0.000625
   outer loop
     vertex -0.025 0.025 0
     vertex -0.025 0.05 0
     vertex 0 0 0
   endloop
 endfacet
 facet normal 0 0 -0.000625
   outer loop
     vertex -0.05 0.025 0
     vertex -0.025 0.025 0
     vertex 0 0 0
   endloop
 endfacet
 facet normal 0 0 0.0025
   outer loop
     vertex -0.05 0.025 0.1
     vertex -0.05 -0.025 0.1
     vertex 0 0 0.1
   endloop
 endfacet
 facet normal 0 0 0.000625
   outer loop
     vertex -0.05 -0.025 0.1
     vertex -0.025 -0.025 0.1
     vertex 0 0 0.1
   endloop
 endfacet
 facet normal 0 0 0.000625
   outer loop
     vertex -0.025 -0.025 0.1
     vertex -0.025 -0.05 0.1
     vertex 0 0 0.1
   endloop
 endfacet
 facet normal 0 0 0.0025
   outer loop
     vertex -0.025 -0.05 0.1
     vertex 0.025 -0.05 0.1
     vertex 0 0 0.1
   endloop
 endfacet
 facet normal 0 0 0.000625
   outer loop
     vertex 0.025 -0.05 0.1
     vertex 0.025 -0.025 0.1
     vertex 0 0 0.1
   endloop
 endfacet
 facet normal 0 0 0.000625
   outer loop
     vertex 0.025 -0.025 0.1
     vertex 0.05 -0.025 0.1
     vertex 0 0 0.1
   endloop
 endfacet
 facet normal 0 0 0.0025
   outer loop
     vertex 0.05 -0.025 0.1
     vertex 0.05 0.025 0.1
     vertex 0 0 0.1
   endloop
 endfacet
 facet normal 0 0 0.000625
   outer loop
     vertex 0.05 0.025 0.1
     vertex 0.025 0.025 0.1
     vertex 0 0 0.1
   endloop
 endfacet
 facet normal 0 0 0.000625
   outer loop
     vertex 0.025 0.025 0.1
     vertex 0.025 0.05 0.1
     vertex 0 0 0.1
   endloop
 endfacet
 facet normal 0 0 0.0025
   outer loop
     vertex 0.025 0.05 0.1
     vertex -0.025 0.05 0.1
     vertex 0 0 0.1
   endloop
 endfacet
 facet normal 0 0 0.000625
   outer loop
     vertex -0.025 0.05 0.1
     vertex -0.025 0.025 0.1
     vertex 0 0 0.1
   endloop
 endfacet
 facet normal 0 0 0.000625
   outer loop
     vertex -0.025 0.025 0.1
     vertex -0.05 0.025 0.1
     vertex 0 0 0.1
   endloop
 endfacet
endsolid AutoCAST10