solid ascii
  facet normal 0.000000e+000 1.000000e+000 -0.000000e+000
    outer loop
      vertex   2.000000e+001 1.937950e+001 5.000000e+000
      vertex   9.269662e+000 1.937950e+001 5.000000e+000
      vertex   2.000000e+001 1.937950e+001 1.000000e+001
    endloop
  endfacet
  facet normal 6.207948e-016 1.000000e+000 -1.332268e-015
    outer loop
      vertex   2.000000e+001 1.937950e+001 1.000000e+001
      vertex   9.269662e+000 1.937950e+001 5.000000e+000
      vertex   9.269662e+000 1.937950e+001 1.000000e+001
    endloop
  endfacet
  facet normal -0.000000e+000 -0.000000e+000 -1.000000e+000
    outer loop
      vertex   2.000000e+001 1.937950e+001 5.000000e+000
      vertex   2.000000e+001 5.000000e+000 5.000000e+000
      vertex   9.269662e+000 1.937950e+001 5.000000e+000
    endloop
  endfacet
  facet normal -0.000000e+000 -0.000000e+000 -1.000000e+000
    outer loop
      vertex   9.269662e+000 1.937950e+001 5.000000e+000
      vertex   2.000000e+001 5.000000e+000 5.000000e+000
      vertex   5.000000e+000 5.000000e+000 5.000000e+000
    endloop
  endfacet
  facet normal 9.586333e-001 -2.846441e-001 0.000000e+000
    outer loop
      vertex   9.269662e+000 1.937950e+001 5.000000e+000
      vertex   5.000000e+000 5.000000e+000 5.000000e+000
      vertex   9.269662e+000 1.937950e+001 -1.000000e+001
    endloop
  endfacet
  facet normal 9.586333e-001 -2.846441e-001 0.000000e+000
    outer loop
      vertex   9.269662e+000 1.937950e+001 -1.000000e+001
      vertex   5.000000e+000 5.000000e+000 5.000000e+000
      vertex   5.000000e+000 5.000000e+000 -1.000000e+001
    endloop
  endfacet
  facet normal -9.187550e-017 -1.000000e+000 0.000000e+000
    outer loop
      vertex   2.000000e+001 1.135676e-009 1.000000e+001
      vertex   -1.700394e+000 1.135678e-009 1.000000e+001
      vertex   2.000000e+001 1.135676e-009 -1.000000e+001
    endloop
  endfacet
  facet normal -9.187550e-017 -1.000000e+000 -0.000000e+000
    outer loop
      vertex   2.000000e+001 1.135676e-009 -1.000000e+001
      vertex   -1.700394e+000 1.135678e-009 1.000000e+001
      vertex   -1.700394e+000 1.135678e-009 -1.000000e+001
    endloop
  endfacet
  facet normal -9.586333e-001 2.846441e-001 0.000000e+000
    outer loop
      vertex   -1.700394e+000 1.135678e-009 1.000000e+001
      vertex   4.476495e+000 2.080272e+001 1.000000e+001
      vertex   -1.700394e+000 1.135678e-009 -1.000000e+001
    endloop
  endfacet
  facet normal -9.586333e-001 2.846441e-001 0.000000e+000
    outer loop
      vertex   -1.700394e+000 1.135678e-009 -1.000000e+001
      vertex   4.476495e+000 2.080272e+001 1.000000e+001
      vertex   4.476495e+000 2.080272e+001 -1.000000e+001
    endloop
  endfacet
  facet normal 2.846441e-001 9.586333e-001 -1.403563e-015
    outer loop
      vertex   9.269662e+000 1.937950e+001 1.000000e+001
      vertex   9.269662e+000 1.937950e+001 5.000000e+000
      vertex   4.476495e+000 2.080272e+001 1.000000e+001
    endloop
  endfacet
  facet normal 2.846441e-001 9.586333e-001 0.000000e+000
    outer loop
      vertex   4.476495e+000 2.080272e+001 1.000000e+001
      vertex   9.269662e+000 1.937950e+001 5.000000e+000
      vertex   4.476495e+000 2.080272e+001 -1.000000e+001
    endloop
  endfacet
  facet normal 2.846441e-001 9.586333e-001 4.678545e-016
    outer loop
      vertex   4.476495e+000 2.080272e+001 -1.000000e+001
      vertex   9.269662e+000 1.937950e+001 5.000000e+000
      vertex   9.269662e+000 1.937950e+001 -1.000000e+001
    endloop
  endfacet
  facet normal -0.000000e+000 1.000000e+000 0.000000e+000
    outer loop
      vertex   5.000000e+000 5.000000e+000 5.000000e+000
      vertex   2.000000e+001 5.000000e+000 5.000000e+000
      vertex   5.000000e+000 5.000000e+000 -1.000000e+001
    endloop
  endfacet
  facet normal -1.790494e-011 1.000000e+000 1.790494e-011
    outer loop
      vertex   5.000000e+000 5.000000e+000 -1.000000e+001
      vertex   2.000000e+001 5.000000e+000 5.000000e+000
      vertex   2.000000e+001 5.000000e+000 -1.000000e+001
    endloop
  endfacet
  facet normal 1.000000e+000 3.088350e-016 -0.000000e+000
    outer loop
      vertex   2.000000e+001 1.937950e+001 5.000000e+000
      vertex   2.000000e+001 1.937950e+001 1.000000e+001
      vertex   2.000000e+001 5.000000e+000 5.000000e+000
    endloop
  endfacet
  facet normal 1.000000e+000 -4.667400e-011 1.342306e-010
    outer loop
      vertex   2.000000e+001 5.000000e+000 5.000000e+000
      vertex   2.000000e+001 1.937950e+001 1.000000e+001
      vertex   2.000000e+001 1.135676e-009 1.000000e+001
    endloop
  endfacet
  facet normal 1.000000e+000 -1.809046e-010 0.000000e+000
    outer loop
      vertex   2.000000e+001 1.135676e-009 -1.000000e+001
      vertex   2.000000e+001 5.000000e+000 5.000000e+000
      vertex   2.000000e+001 1.135676e-009 1.000000e+001
    endloop
  endfacet
  facet normal 1.000000e+000 -4.440892e-016 -6.030139e-011
    outer loop
      vertex   2.000000e+001 1.135676e-009 -1.000000e+001
      vertex   2.000000e+001 5.000000e+000 -1.000000e+001
      vertex   2.000000e+001 5.000000e+000 5.000000e+000
    endloop
  endfacet
  facet normal -0.000000e+000 0.000000e+000 1.000000e+000
    outer loop
      vertex   4.476495e+000 2.080272e+001 1.000000e+001
      vertex   -1.700394e+000 1.135678e-009 1.000000e+001
      vertex   9.269662e+000 1.937950e+001 1.000000e+001
    endloop
  endfacet
  facet normal 0.000000e+000 0.000000e+000 1.000000e+000
    outer loop
      vertex   9.269662e+000 1.937950e+001 1.000000e+001
      vertex   -1.700394e+000 1.135678e-009 1.000000e+001
      vertex   2.000000e+001 1.135676e-009 1.000000e+001
    endloop
  endfacet
  facet normal 0.000000e+000 0.000000e+000 1.000000e+000
    outer loop
      vertex   2.000000e+001 1.937950e+001 1.000000e+001
      vertex   9.269662e+000 1.937950e+001 1.000000e+001
      vertex   2.000000e+001 1.135676e-009 1.000000e+001
    endloop
  endfacet
  facet normal -0.000000e+000 0.000000e+000 -1.000000e+000
    outer loop
      vertex   2.000000e+001 5.000000e+000 -1.000000e+001
      vertex   2.000000e+001 1.135676e-009 -1.000000e+001
      vertex   5.000000e+000 5.000000e+000 -1.000000e+001
    endloop
  endfacet
  facet normal -0.000000e+000 -0.000000e+000 -1.000000e+000
    outer loop
      vertex   5.000000e+000 5.000000e+000 -1.000000e+001
      vertex   2.000000e+001 1.135676e-009 -1.000000e+001
      vertex   -1.700394e+000 1.135678e-009 -1.000000e+001
    endloop
  endfacet
  facet normal 0.000000e+000 -0.000000e+000 -1.000000e+000
    outer loop
      vertex   4.476495e+000 2.080272e+001 -1.000000e+001
      vertex   5.000000e+000 5.000000e+000 -1.000000e+001
      vertex   -1.700394e+000 1.135678e-009 -1.000000e+001
    endloop
  endfacet
  facet normal 0.000000e+000 -0.000000e+000 -1.000000e+000
    outer loop
      vertex   4.476495e+000 2.080272e+001 -1.000000e+001
      vertex   9.269662e+000 1.937950e+001 -1.000000e+001
      vertex   5.000000e+000 5.000000e+000 -1.000000e+001
    endloop
  endfacet
endsolid
