solid ANGLE
  facet normal 0.000000e+00 0.000000e+00 -1.000000e+00
    outer loop
      vertex 2.250000e+01 -2.250000e+01 0.000000e+00
      vertex -2.250000e+01 -2.250000e+01 0.000000e+00
      vertex -2.250000e+01 2.250000e+01 0.000000e+00
    endloop
  endfacet
  facet normal -1.000000e+00 0.000000e+00 0.000000e+00
    outer loop
      vertex -2.250000e+01 2.250000e+01 1.000000e+01
      vertex -2.250000e+01 2.250000e+01 0.000000e+00
      vertex -2.250000e+01 -2.250000e+01 0.000000e+00
    endloop
  endfacet
  facet normal 0.000000e+00 0.000000e+00 -1.000000e+00
    outer loop
      vertex 2.250000e+01 2.250000e+01 0.000000e+00
      vertex 2.250000e+01 -2.250000e+01 0.000000e+00
      vertex -2.250000e+01 2.250000e+01 0.000000e+00
    endloop
  endfacet
  facet normal 0.000000e+00 1.000000e+00 0.000000e+00
    outer loop
      vertex 2.250000e+01 2.250000e+01 1.000000e+01
      vertex 2.250000e+01 2.250000e+01 0.000000e+00
      vertex -2.250000e+01 2.250000e+01 0.000000e+00
    endloop
  endfacet
  facet normal 0.000000e+00 1.000000e+00 0.000000e+00
    outer loop
      vertex -6.000000e+00 2.250000e+01 1.000000e+01
      vertex -2.250000e+01 2.250000e+01 0.000000e+00
      vertex -2.250000e+01 2.250000e+01 1.000000e+01
    endloop
  endfacet
  facet normal 0.000000e+00 1.000000e+00 0.000000e+00
    outer loop
      vertex 6.000000e+00 2.250000e+01 1.000000e+01
      vertex -2.250000e+01 2.250000e+01 0.000000e+00
      vertex -6.000000e+00 2.250000e+01 1.000000e+01
    endloop
  endfacet
  facet normal 0.000000e+00 1.000000e+00 0.000000e+00
    outer loop
      vertex 2.250000e+01 2.250000e+01 1.000000e+01
      vertex -2.250000e+01 2.250000e+01 0.000000e+00
      vertex 6.000000e+00 2.250000e+01 1.000000e+01
    endloop
  endfacet
  facet normal 0.000000e+00 -1.000000e+00 0.000000e+00
    outer loop
      vertex -2.250000e+01 -2.250000e+01 1.000000e+01
      vertex -2.250000e+01 -2.250000e+01 0.000000e+00
      vertex 2.250000e+01 -2.250000e+01 0.000000e+00
    endloop
  endfacet
  facet normal -1.000000e+00 0.000000e+00 0.000000e+00
    outer loop
      vertex -2.250000e+01 2.250000e+01 1.000000e+01
      vertex -2.250000e+01 -2.250000e+01 0.000000e+00
      vertex -2.250000e+01 -2.250000e+01 1.000000e+01
    endloop
  endfacet
  facet normal 1.000000e+00 0.000000e+00 0.000000e+00
    outer loop
      vertex 2.250000e+01 -2.250000e+01 1.000000e+01
      vertex 2.250000e+01 -2.250000e+01 0.000000e+00
      vertex 2.250000e+01 2.250000e+01 0.000000e+00
    endloop
  endfacet
  facet normal 0.000000e+00 -1.000000e+00 0.000000e+00
    outer loop
      vertex -2.250000e+01 -2.250000e+01 1.000000e+01
      vertex 2.250000e+01 -2.250000e+01 0.000000e+00
      vertex 2.250000e+01 -2.250000e+01 1.000000e+01
    endloop
  endfacet
  facet normal 1.000000e+00 0.000000e+00 0.000000e+00
    outer loop
      vertex 2.250000e+01 -2.250000e+01 1.000000e+01
      vertex 2.250000e+01 2.250000e+01 0.000000e+00
      vertex 2.250000e+01 4.454483e+00 1.000000e+01
    endloop
  endfacet
  facet normal 1.000000e+00 0.000000e+00 0.000000e+00
    outer loop
      vertex 2.250000e+01 1.645448e+01 1.000000e+01
      vertex 2.250000e+01 4.454483e+00 1.000000e+01
      vertex 2.250000e+01 2.250000e+01 0.000000e+00
    endloop
  endfacet
  facet normal 1.000000e+00 0.000000e+00 0.000000e+00
    outer loop
      vertex 2.250000e+01 1.645448e+01 1.000000e+01
      vertex 2.250000e+01 2.250000e+01 0.000000e+00
      vertex 2.250000e+01 2.250000e+01 1.000000e+01
    endloop
  endfacet
  facet normal 0.000000e+00 0.000000e+00 1.000000e+00
    outer loop
      vertex -2.212074e+01 -2.130732e+01 1.000000e+01
      vertex -6.000000e+00 -2.157180e+01 1.000000e+01
      vertex -6.000000e+00 -1.200000e+01 1.000000e+01
    endloop
  endfacet
  facet normal -1.000000e+00 0.000000e+00 0.000000e+00
    outer loop
      vertex -6.000000e+00 -2.157180e+01 7.000000e+01
      vertex -6.000000e+00 -1.200000e+01 1.000000e+01
      vertex -6.000000e+00 -2.157180e+01 1.000000e+01
    endloop
  endfacet
  facet normal 5.000000e-01 -8.660254e-01 0.000000e+00
    outer loop
      vertex -6.000000e+00 -1.200000e+01 7.000000e+01
      vertex -2.212074e+01 -2.130732e+01 1.000000e+01
      vertex -6.000000e+00 -1.200000e+01 1.000000e+01
    endloop
  endfacet
  facet normal -1.000000e+00 0.000000e+00 0.000000e+00
    outer loop
      vertex -6.000000e+00 -1.200000e+01 7.000000e+01
      vertex -6.000000e+00 -1.200000e+01 1.000000e+01
      vertex -6.000000e+00 -2.157180e+01 7.000000e+01
    endloop
  endfacet
  facet normal 0.000000e+00 0.000000e+00 1.000000e+00
    outer loop
      vertex -2.250000e+01 -2.250000e+01 1.000000e+01
      vertex 6.000000e+00 -2.157180e+01 1.000000e+01
      vertex -6.000000e+00 -2.157180e+01 1.000000e+01
    endloop
  endfacet
  facet normal 0.000000e+00 -1.000000e+00 0.000000e+00
    outer loop
      vertex 6.000000e+00 -2.157180e+01 7.000000e+01
      vertex -6.000000e+00 -2.157180e+01 1.000000e+01
      vertex 6.000000e+00 -2.157180e+01 1.000000e+01
    endloop
  endfacet
  facet normal 0.000000e+00 0.000000e+00 1.000000e+00
    outer loop
      vertex -2.212074e+01 -2.130732e+01 1.000000e+01
      vertex -2.250000e+01 -2.250000e+01 1.000000e+01
      vertex -6.000000e+00 -2.157180e+01 1.000000e+01
    endloop
  endfacet
  facet normal 0.000000e+00 -1.000000e+00 0.000000e+00
    outer loop
      vertex -6.000000e+00 -2.157180e+01 7.000000e+01
      vertex -6.000000e+00 -2.157180e+01 1.000000e+01
      vertex 6.000000e+00 -2.157180e+01 7.000000e+01
    endloop
  endfacet
  facet normal 0.000000e+00 0.000000e+00 1.000000e+00
    outer loop
      vertex 2.250000e+01 4.454483e+00 1.000000e+01
      vertex 6.000000e+00 -5.071797e+00 1.000000e+01
      vertex 6.000000e+00 -2.157180e+01 1.000000e+01
    endloop
  endfacet
  facet normal 1.000000e+00 0.000000e+00 0.000000e+00
    outer loop
      vertex 6.000000e+00 -5.071797e+00 7.000000e+01
      vertex 6.000000e+00 -2.157180e+01 1.000000e+01
      vertex 6.000000e+00 -5.071797e+00 1.000000e+01
    endloop
  endfacet
  facet normal 0.000000e+00 0.000000e+00 1.000000e+00
    outer loop
      vertex 2.250000e+01 -2.250000e+01 1.000000e+01
      vertex 2.250000e+01 4.454483e+00 1.000000e+01
      vertex 6.000000e+00 -2.157180e+01 1.000000e+01
    endloop
  endfacet
  facet normal 0.000000e+00 0.000000e+00 1.000000e+00
    outer loop
      vertex -2.250000e+01 -2.250000e+01 1.000000e+01
      vertex 2.250000e+01 -2.250000e+01 1.000000e+01
      vertex 6.000000e+00 -2.157180e+01 1.000000e+01
    endloop
  endfacet
  facet normal 1.000000e+00 0.000000e+00 0.000000e+00
    outer loop
      vertex 6.000000e+00 -2.157180e+01 7.000000e+01
      vertex 6.000000e+00 -2.157180e+01 1.000000e+01
      vertex 6.000000e+00 -5.071797e+00 7.000000e+01
    endloop
  endfacet
  facet normal 5.000000e-01 -8.660254e-01 1.864691e-17
    outer loop
      vertex 2.448700e+01 5.601677e+00 7.000000e+01
      vertex 6.000000e+00 -5.071797e+00 1.000000e+01
      vertex 2.250000e+01 4.454483e+00 1.000000e+01
    endloop
  endfacet
  facet normal 5.000000e-01 -8.660254e-01 0.000000e+00
    outer loop
      vertex 6.000000e+00 -5.071797e+00 7.000000e+01
      vertex 6.000000e+00 -5.071797e+00 1.000000e+01
      vertex 2.448700e+01 5.601677e+00 7.000000e+01
    endloop
  endfacet
  facet normal 0.000000e+00 0.000000e+00 -1.000000e+00
    outer loop
      vertex 2.448700e+01 1.760168e+01 1.000000e+01
      vertex 2.250000e+01 4.454483e+00 1.000000e+01
      vertex 2.250000e+01 1.645448e+01 1.000000e+01
    endloop
  endfacet
  facet normal 0.000000e+00 0.000000e+00 -1.000000e+00
    outer loop
      vertex 2.448700e+01 1.760168e+01 1.000000e+01
      vertex 2.448700e+01 5.601677e+00 1.000000e+01
      vertex 2.250000e+01 4.454483e+00 1.000000e+01
    endloop
  endfacet
  facet normal 5.000000e-01 -8.660254e-01 0.000000e+00
    outer loop
      vertex 2.448700e+01 5.601677e+00 7.000000e+01
      vertex 2.250000e+01 4.454483e+00 1.000000e+01
      vertex 2.448700e+01 5.601677e+00 1.000000e+01
    endloop
  endfacet
  facet normal 0.000000e+00 0.000000e+00 1.000000e+00
    outer loop
      vertex -2.212074e+01 -9.307316e+00 1.000000e+01
      vertex -2.250000e+01 2.250000e+01 1.000000e+01
      vertex -2.250000e+01 -2.250000e+01 1.000000e+01
    endloop
  endfacet
  facet normal 0.000000e+00 0.000000e+00 1.000000e+00
    outer loop
      vertex -2.212074e+01 -2.130732e+01 1.000000e+01
      vertex -2.212074e+01 -9.307316e+00 1.000000e+01
      vertex -2.250000e+01 -2.250000e+01 1.000000e+01
    endloop
  endfacet
  facet normal 0.000000e+00 0.000000e+00 1.000000e+00
    outer loop
      vertex -2.212074e+01 -9.307316e+00 1.000000e+01
      vertex -6.000000e+00 2.250000e+01 1.000000e+01
      vertex -2.250000e+01 2.250000e+01 1.000000e+01
    endloop
  endfacet
  facet normal 0.000000e+00 0.000000e+00 1.000000e+00
    outer loop
      vertex -2.212074e+01 -9.307316e+00 1.000000e+01
      vertex -6.000000e+00 1.797231e-16 1.000000e+01
      vertex -6.000000e+00 2.250000e+01 1.000000e+01
    endloop
  endfacet
  facet normal -1.000000e+00 0.000000e+00 0.000000e+00
    outer loop
      vertex -6.000000e+00 0.000000e+00 7.000000e+01
      vertex -6.000000e+00 2.250000e+01 1.000000e+01
      vertex -6.000000e+00 1.797231e-16 1.000000e+01
    endloop
  endfacet
  facet normal 0.000000e+00 0.000000e+00 -1.000000e+00
    outer loop
      vertex 6.000000e+00 2.342820e+01 1.000000e+01
      vertex 6.000000e+00 2.250000e+01 1.000000e+01
      vertex -6.000000e+00 2.250000e+01 1.000000e+01
    endloop
  endfacet
  facet normal 0.000000e+00 0.000000e+00 -1.000000e+00
    outer loop
      vertex -6.000000e+00 2.342820e+01 1.000000e+01
      vertex 6.000000e+00 2.342820e+01 1.000000e+01
      vertex -6.000000e+00 2.250000e+01 1.000000e+01
    endloop
  endfacet
  facet normal -1.000000e+00 0.000000e+00 0.000000e+00
    outer loop
      vertex -6.000000e+00 0.000000e+00 7.000000e+01
      vertex -6.000000e+00 2.342820e+01 1.000000e+01
      vertex -6.000000e+00 2.250000e+01 1.000000e+01
    endloop
  endfacet
  facet normal -5.000000e-01 8.660254e-01 0.000000e+00
    outer loop
      vertex -2.212074e+01 -9.307316e+00 7.000000e+01
      vertex -6.000000e+00 1.797231e-16 1.000000e+01
      vertex -2.212074e+01 -9.307316e+00 1.000000e+01
    endloop
  endfacet
  facet normal -5.000000e-01 8.660254e-01 2.594080e-18
    outer loop
      vertex -6.000000e+00 0.000000e+00 7.000000e+01
      vertex -6.000000e+00 1.797231e-16 1.000000e+01
      vertex -2.212074e+01 -9.307316e+00 7.000000e+01
    endloop
  endfacet
  facet normal -1.000000e+00 0.000000e+00 0.000000e+00
    outer loop
      vertex -2.212074e+01 -2.130732e+01 7.000000e+01
      vertex -2.212074e+01 -9.307316e+00 1.000000e+01
      vertex -2.212074e+01 -2.130732e+01 1.000000e+01
    endloop
  endfacet
  facet normal -1.000000e+00 0.000000e+00 0.000000e+00
    outer loop
      vertex -2.212074e+01 -9.307316e+00 7.000000e+01
      vertex -2.212074e+01 -9.307316e+00 1.000000e+01
      vertex -2.212074e+01 -2.130732e+01 7.000000e+01
    endloop
  endfacet
  facet normal 5.000000e-01 -8.660254e-01 0.000000e+00
    outer loop
      vertex -2.212074e+01 -2.130732e+01 7.000000e+01
      vertex -2.212074e+01 -2.130732e+01 1.000000e+01
      vertex -6.000000e+00 -1.200000e+01 7.000000e+01
    endloop
  endfacet
  facet normal 0.000000e+00 0.000000e+00 1.000000e+00
    outer loop
      vertex 2.250000e+01 2.250000e+01 1.000000e+01
      vertex 6.000000e+00 2.250000e+01 1.000000e+01
      vertex 6.000000e+00 6.928203e+00 1.000000e+01
    endloop
  endfacet
  facet normal 1.000000e+00 0.000000e+00 0.000000e+00
    outer loop
      vertex 6.000000e+00 2.342820e+01 7.000000e+01
      vertex 6.000000e+00 6.928203e+00 1.000000e+01
      vertex 6.000000e+00 2.250000e+01 1.000000e+01
    endloop
  endfacet
  facet normal 0.000000e+00 0.000000e+00 1.000000e+00
    outer loop
      vertex 2.250000e+01 1.645448e+01 1.000000e+01
      vertex 2.250000e+01 2.250000e+01 1.000000e+01
      vertex 6.000000e+00 6.928203e+00 1.000000e+01
    endloop
  endfacet
  facet normal -5.000000e-01 8.660254e-01 1.281975e-17
    outer loop
      vertex 6.000000e+00 6.928203e+00 7.000000e+01
      vertex 2.250000e+01 1.645448e+01 1.000000e+01
      vertex 6.000000e+00 6.928203e+00 1.000000e+01
    endloop
  endfacet
  facet normal 1.000000e+00 0.000000e+00 0.000000e+00
    outer loop
      vertex 6.000000e+00 6.928203e+00 7.000000e+01
      vertex 6.000000e+00 6.928203e+00 1.000000e+01
      vertex 6.000000e+00 2.342820e+01 7.000000e+01
    endloop
  endfacet
  facet normal 1.000000e+00 0.000000e+00 0.000000e+00
    outer loop
      vertex 6.000000e+00 2.342820e+01 7.000000e+01
      vertex 6.000000e+00 2.250000e+01 1.000000e+01
      vertex 6.000000e+00 2.342820e+01 1.000000e+01
    endloop
  endfacet
  facet normal -5.000000e-01 8.660254e-01 -4.129164e-16
    outer loop
      vertex 6.000000e+00 6.928203e+00 7.000000e+01
      vertex 2.448700e+01 1.760168e+01 1.000000e+01
      vertex 2.250000e+01 1.645448e+01 1.000000e+01
    endloop
  endfacet
  facet normal 1.000000e+00 0.000000e+00 0.000000e+00
    outer loop
      vertex 2.448700e+01 1.760168e+01 7.000000e+01
      vertex 2.448700e+01 5.601677e+00 1.000000e+01
      vertex 2.448700e+01 1.760168e+01 1.000000e+01
    endloop
  endfacet
  facet normal 1.000000e+00 0.000000e+00 0.000000e+00
    outer loop
      vertex 2.448700e+01 5.601677e+00 7.000000e+01
      vertex 2.448700e+01 5.601677e+00 1.000000e+01
      vertex 2.448700e+01 1.760168e+01 7.000000e+01
    endloop
  endfacet
  facet normal -5.000000e-01 8.660254e-01 0.000000e+00
    outer loop
      vertex 2.448700e+01 1.760168e+01 7.000000e+01
      vertex 2.448700e+01 1.760168e+01 1.000000e+01
      vertex 6.000000e+00 6.928203e+00 7.000000e+01
    endloop
  endfacet
  facet normal 0.000000e+00 1.000000e+00 0.000000e+00
    outer loop
      vertex -6.000000e+00 2.342820e+01 7.000000e+01
      vertex 6.000000e+00 2.342820e+01 1.000000e+01
      vertex -6.000000e+00 2.342820e+01 1.000000e+01
    endloop
  endfacet
  facet normal 0.000000e+00 1.000000e+00 0.000000e+00
    outer loop
      vertex 6.000000e+00 2.342820e+01 7.000000e+01
      vertex 6.000000e+00 2.342820e+01 1.000000e+01
      vertex -6.000000e+00 2.342820e+01 7.000000e+01
    endloop
  endfacet
  facet normal -1.000000e+00 0.000000e+00 0.000000e+00
    outer loop
      vertex -6.000000e+00 0.000000e+00 7.000000e+01
      vertex -6.000000e+00 2.342820e+01 7.000000e+01
      vertex -6.000000e+00 2.342820e+01 1.000000e+01
    endloop
  endfacet
  facet normal 0.000000e+00 0.000000e+00 1.000000e+00
    outer loop
      vertex 6.000000e+00 6.928203e+00 7.000000e+01
      vertex 6.000000e+00 2.342820e+01 7.000000e+01
      vertex -6.000000e+00 2.342820e+01 7.000000e+01
    endloop
  endfacet
  facet normal 0.000000e+00 0.000000e+00 1.000000e+00
    outer loop
      vertex 6.000000e+00 -5.071797e+00 7.000000e+01
      vertex 6.000000e+00 6.928203e+00 7.000000e+01
      vertex -6.000000e+00 2.342820e+01 7.000000e+01
    endloop
  endfacet
  facet normal 0.000000e+00 0.000000e+00 1.000000e+00
    outer loop
      vertex 6.000000e+00 -2.157180e+01 7.000000e+01
      vertex 6.000000e+00 -5.071797e+00 7.000000e+01
      vertex -6.000000e+00 2.342820e+01 7.000000e+01
    endloop
  endfacet
  facet normal 0.000000e+00 0.000000e+00 1.000000e+00
    outer loop
      vertex -6.000000e+00 0.000000e+00 7.000000e+01
      vertex 6.000000e+00 -2.157180e+01 7.000000e+01
      vertex -6.000000e+00 2.342820e+01 7.000000e+01
    endloop
  endfacet
  facet normal 0.000000e+00 0.000000e+00 1.000000e+00
    outer loop
      vertex 2.448700e+01 5.601677e+00 7.000000e+01
      vertex 2.448700e+01 1.760168e+01 7.000000e+01
      vertex 6.000000e+00 6.928203e+00 7.000000e+01
    endloop
  endfacet
  facet normal 0.000000e+00 0.000000e+00 1.000000e+00
    outer loop
      vertex 6.000000e+00 -5.071797e+00 7.000000e+01
      vertex 2.448700e+01 5.601677e+00 7.000000e+01
      vertex 6.000000e+00 6.928203e+00 7.000000e+01
    endloop
  endfacet
  facet normal 0.000000e+00 0.000000e+00 1.000000e+00
    outer loop
      vertex -6.000000e+00 -1.200000e+01 7.000000e+01
      vertex -6.000000e+00 -2.157180e+01 7.000000e+01
      vertex 6.000000e+00 -2.157180e+01 7.000000e+01
    endloop
  endfacet
  facet normal 0.000000e+00 0.000000e+00 1.000000e+00
    outer loop
      vertex -6.000000e+00 0.000000e+00 7.000000e+01
      vertex -6.000000e+00 -1.200000e+01 7.000000e+01
      vertex 6.000000e+00 -2.157180e+01 7.000000e+01
    endloop
  endfacet
  facet normal 0.000000e+00 0.000000e+00 1.000000e+00
    outer loop
      vertex -2.212074e+01 -9.307316e+00 7.000000e+01
      vertex -2.212074e+01 -2.130732e+01 7.000000e+01
      vertex -6.000000e+00 -1.200000e+01 7.000000e+01
    endloop
  endfacet
  facet normal 0.000000e+00 0.000000e+00 1.000000e+00
    outer loop
      vertex -6.000000e+00 0.000000e+00 7.000000e+01
      vertex -2.212074e+01 -9.307316e+00 7.000000e+01
      vertex -6.000000e+00 -1.200000e+01 7.000000e+01
    endloop
  endfacet
endsolid ANGLE
