solid SOLIDTYPE
 facet normal 0.000 0.000 1.000 
   outer loop
     vertex 389.9 254.4 507.5 
     vertex 439.9 254.4 507.5 
     vertex 439.1 269.9 507.5 
   endloop 
 endfacet
 facet normal 0.000 0.000 1.000 
   outer loop
     vertex 389.4 264.9 507.5 
     vertex 439.1 269.9 507.5 
     vertex 436.8 285.2 507.5 
   endloop 
 endfacet
 facet normal 0.000 0.000 1.000 
   outer loop
     vertex 387.8 275.3 507.5 
     vertex 436.8 285.2 507.5 
     vertex 433.0 300.2 507.5 
   endloop 
 endfacet
 facet normal 0.000 0.000 1.000 
   outer loop
     vertex 385.2 285.5 507.5 
     vertex 433.0 300.2 507.5 
     vertex 427.7 314.8 507.5 
   endloop 
 endfacet
 facet normal 0.000 0.000 1.000 
   outer loop
     vertex 381.6 295.4 507.5 
     vertex 427.7 314.8 507.5 
     vertex 421.0 328.8 507.5 
   endloop 
 endfacet
 facet normal 0.000 0.000 1.000 
   outer loop
     vertex 377.1 304.9 507.5 
     vertex 421.0 328.8 507.5 
     vertex 412.9 342.0 507.5 
   endloop 
 endfacet
 facet normal 0.000 0.000 1.000 
   outer loop
     vertex 371.6 313.8 507.5 
     vertex 412.9 342.0 507.5 
     vertex 403.5 354.4 507.5 
   endloop 
 endfacet
 facet normal 0.000 0.000 1.000 
   outer loop
     vertex 365.2 322.2 507.5 
     vertex 403.5 354.4 507.5 
     vertex 393.0 365.7 507.5 
   endloop 
 endfacet
 facet normal 0.000 0.000 1.000 
   outer loop
     vertex 358.1 329.9 507.5 
     vertex 393.0 365.7 507.5 
     vertex 381.4 376.0 507.5 
   endloop 
 endfacet
 facet normal 0.000 0.000 1.000 
   outer loop
     vertex 350.2 336.9 507.5 
     vertex 381.4 376.0 507.5 
     vertex 368.8 385.0 507.5 
   endloop 
 endfacet
 facet normal 0.000 0.000 1.000 
   outer loop
     vertex 341.6 343.0 507.5 
     vertex 368.8 385.0 507.5 
     vertex 355.3 392.8 507.5 
   endloop 
 endfacet
 facet normal 0.000 0.000 1.000 
   outer loop
     vertex 332.5 348.3 507.5 
     vertex 355.3 392.8 507.5 
     vertex 341.2 399.2 507.5 
   endloop 
 endfacet
 facet normal 0.000 0.000 1.000 
   outer loop
     vertex 322.9 352.6 507.5 
     vertex 341.2 399.2 507.5 
     vertex 326.5 404.1 507.5 
   endloop 
 endfacet
 facet normal 0.000 0.000 1.000 
   outer loop
     vertex 313.0 356.0 507.5 
     vertex 326.5 404.1 507.5 
     vertex 311.4 407.5 507.5 
   endloop 
 endfacet
 facet normal 0.000 0.000 1.000 
   outer loop
     vertex 302.7 358.3 507.5 
     vertex 311.4 407.5 507.5 
     vertex 296.0 409.5 507.5 
   endloop 
 endfacet
 facet normal 0.000 0.000 1.000 
   outer loop
     vertex 292.3 359.6 507.5 
     vertex 296.0 409.5 507.5 
     vertex 280.5 409.9 507.5 
   endloop 
 endfacet
 facet normal 0.000 0.000 1.000 
   outer loop
     vertex 281.8 359.9 507.5 
     vertex 280.5 409.9 507.5 
     vertex 265.1 408.7 507.5 
   endloop 
 endfacet
 facet normal 0.000 0.000 1.000 
   outer loop
     vertex 271.3 359.1 507.5 
     vertex 265.1 408.7 507.5 
     vertex 249.8 406.0 507.5 
   endloop 
 endfacet
 facet normal 0.000 0.000 1.000 
   outer loop
     vertex 260.9 357.3 507.5 
     vertex 249.8 406.0 507.5 
     vertex 234.9 401.8 507.5 
   endloop 
 endfacet
 facet normal 0.000 0.000 1.000 
   outer loop
     vertex 250.8 354.4 507.5 
     vertex 234.9 401.8 507.5 
     vertex 220.4 396.1 507.5 
   endloop 
 endfacet
 facet normal 0.000 0.000 1.000 
   outer loop
     vertex 241.0 350.6 507.5 
     vertex 220.4 396.1 507.5 
     vertex 206.6 389.1 507.5 
   endloop 
 endfacet
 facet normal 0.000 0.000 1.000 
   outer loop
     vertex 231.6 345.8 507.5 
     vertex 206.6 389.1 507.5 
     vertex 193.6 380.7 507.5 
   endloop 
 endfacet
 facet normal 0.000 0.000 1.000 
   outer loop
     vertex 222.8 340.1 507.5 
     vertex 193.6 380.7 507.5 
     vertex 181.5 371.0 507.5 
   endloop 
 endfacet
 facet normal 0.000 0.000 1.000 
   outer loop
     vertex 214.6 333.5 507.5 
     vertex 181.5 371.0 507.5 
     vertex 170.4 360.2 507.5 
   endloop 
 endfacet
 facet normal 0.000 0.000 1.000 
   outer loop
     vertex 207.1 326.2 507.5 
     vertex 170.4 360.2 507.5 
     vertex 160.4 348.3 507.5 
   endloop 
 endfacet
 facet normal 0.000 0.000 1.000 
   outer loop
     vertex 200.3 318.1 507.5 
     vertex 160.4 348.3 507.5 
     vertex 151.7 335.5 507.5 
   endloop 
 endfacet
 facet normal 0.000 0.000 1.000 
   outer loop
     vertex 194.4 309.4 507.5 
     vertex 151.7 335.5 507.5 
     vertex 144.3 321.9 507.5 
   endloop 
 endfacet
 facet normal 0.000 0.000 1.000 
   outer loop
     vertex 189.3 300.2 507.5 
     vertex 144.3 321.9 507.5 
     vertex 138.3 307.6 507.5 
   endloop 
 endfacet
 facet normal 0.000 0.000 1.000 
   outer loop
     vertex 185.3 290.5 507.5 
     vertex 138.3 307.6 507.5 
     vertex 133.7 292.8 507.5 
   endloop 
 endfacet
 facet normal 0.000 0.000 1.000 
   outer loop
     vertex 182.2 280.4 507.5 
     vertex 133.7 292.8 507.5 
     vertex 130.6 277.6 507.5 
   endloop 
 endfacet
 facet normal 0.000 0.000 1.000 
   outer loop
     vertex 180.1 270.1 507.5 
     vertex 130.6 277.6 507.5 
     vertex 129.1 262.2 507.5 
   endloop 
 endfacet
 facet normal 0.000 0.000 1.000 
   outer loop
     vertex 179.0 259.7 507.5 
     vertex 129.1 262.2 507.5 
     vertex 129.1 246.6 507.5 
   endloop 
 endfacet
 facet normal 0.000 0.000 1.000 
   outer loop
     vertex 179.0 249.1 507.5 
     vertex 129.1 246.6 507.5 
     vertex 130.6 231.2 507.5 
   endloop 
 endfacet
 facet normal 0.000 0.000 1.000 
   outer loop
     vertex 180.1 238.7 507.5 
     vertex 130.6 231.2 507.5 
     vertex 133.7 216.0 507.5 
   endloop 
 endfacet
 facet normal 0.000 0.000 1.000 
   outer loop
     vertex 182.2 228.4 507.5 
     vertex 133.7 216.0 507.5 
     vertex 138.3 201.2 507.5 
   endloop 
 endfacet
 facet normal 0.000 0.000 1.000 
   outer loop
     vertex 185.3 218.3 507.5 
     vertex 138.3 201.2 507.5 
     vertex 144.3 186.9 507.5 
   endloop 
 endfacet
 facet normal 0.000 0.000 1.000 
   outer loop
     vertex 189.3 208.6 507.5 
     vertex 144.3 186.9 507.5 
     vertex 151.7 173.3 507.5 
   endloop 
 endfacet
 facet normal 0.000 0.000 1.000 
   outer loop
     vertex 194.4 199.4 507.5 
     vertex 151.7 173.3 507.5 
     vertex 160.4 160.5 507.5 
   endloop 
 endfacet
 facet normal 0.000 0.000 1.000 
   outer loop
     vertex 200.3 190.7 507.5 
     vertex 160.4 160.5 507.5 
     vertex 170.4 148.6 507.5 
   endloop 
 endfacet
 facet normal 0.000 0.000 1.000 
   outer loop
     vertex 207.1 182.6 507.5 
     vertex 170.4 148.6 507.5 
     vertex 181.5 137.8 507.5 
   endloop 
 endfacet
 facet normal 0.000 0.000 1.000 
   outer loop
     vertex 214.6 175.3 507.5 
     vertex 181.5 137.8 507.5 
     vertex 193.6 128.1 507.5 
   endloop 
 endfacet
 facet normal 0.000 0.000 1.000 
   outer loop
     vertex 222.8 168.7 507.5 
     vertex 193.6 128.1 507.5 
     vertex 206.7 119.7 507.5 
   endloop 
 endfacet
 facet normal 0.000 0.000 1.000 
   outer loop
     vertex 231.7 163.0 507.5 
     vertex 206.7 119.7 507.5 
     vertex 220.4 112.7 507.5 
   endloop 
 endfacet
 facet normal 0.000 0.000 1.000 
   outer loop
     vertex 241.0 158.2 507.5 
     vertex 220.4 112.7 507.5 
     vertex 234.9 107.0 507.5 
   endloop 
 endfacet
 facet normal 0.000 0.000 1.000 
   outer loop
     vertex 250.8 154.4 507.5 
     vertex 234.9 107.0 507.5 
     vertex 249.8 102.8 507.5 
   endloop 
 endfacet
 facet normal 0.000 0.000 1.000 
   outer loop
     vertex 260.9 151.5 507.5 
     vertex 249.8 102.8 507.5 
     vertex 265.1 100.1 507.5 
   endloop 
 endfacet
 facet normal 0.000 0.000 1.000 
   outer loop
     vertex 271.3 149.7 507.5 
     vertex 265.1 100.1 507.5 
     vertex 280.5 98.9 507.5 
   endloop 
 endfacet
 facet normal 0.000 0.000 1.000 
   outer loop
     vertex 281.8 148.9 507.5 
     vertex 280.5 98.9 507.5 
     vertex 296.0 99.3 507.5 
   endloop 
 endfacet
 facet normal 0.000 0.000 1.000 
   outer loop
     vertex 292.3 149.2 507.5 
     vertex 296.0 99.3 507.5 
     vertex 311.4 101.3 507.5 
   endloop 
 endfacet
 facet normal 0.000 0.000 1.000 
   outer loop
     vertex 302.7 150.5 507.5 
     vertex 311.4 101.3 507.5 
     vertex 326.5 104.7 507.5 
   endloop 
 endfacet
 facet normal 0.000 0.000 1.000 
   outer loop
     vertex 313.0 152.8 507.5 
     vertex 326.5 104.7 507.5 
     vertex 341.2 109.6 507.5 
   endloop 
 endfacet
 facet normal 0.000 0.000 1.000 
   outer loop
     vertex 322.9 156.2 507.5 
     vertex 341.2 109.6 507.5 
     vertex 355.3 116.0 507.5 
   endloop 
 endfacet
 facet normal 0.000 0.000 1.000 
   outer loop
     vertex 332.5 160.5 507.5 
     vertex 355.3 116.0 507.5 
     vertex 368.8 123.8 507.5 
   endloop 
 endfacet
 facet normal 0.000 0.000 1.000 
   outer loop
     vertex 341.6 165.8 507.5 
     vertex 368.8 123.8 507.5 
     vertex 381.4 132.8 507.5 
   endloop 
 endfacet
 facet normal 0.000 0.000 1.000 
   outer loop
     vertex 350.2 171.9 507.5 
     vertex 381.4 132.8 507.5 
     vertex 393.0 143.1 507.5 
   endloop 
 endfacet
 facet normal 0.000 0.000 1.000 
   outer loop
     vertex 358.1 178.9 507.5 
     vertex 393.0 143.1 507.5 
     vertex 403.5 154.4 507.5 
   endloop 
 endfacet
 facet normal 0.000 0.000 1.000 
   outer loop
     vertex 365.2 186.6 507.5 
     vertex 403.5 154.4 507.5 
     vertex 412.9 166.8 507.5 
   endloop 
 endfacet
 facet normal 0.000 0.000 1.000 
   outer loop
     vertex 371.6 195.0 507.5 
     vertex 412.9 166.8 507.5 
     vertex 421.0 180.0 507.5 
   endloop 
 endfacet
 facet normal 0.000 0.000 1.000 
   outer loop
     vertex 377.1 203.9 507.5 
     vertex 421.0 180.0 507.5 
     vertex 427.7 194.0 507.5 
   endloop 
 endfacet
 facet normal 0.000 0.000 1.000 
   outer loop
     vertex 381.6 213.4 507.5 
     vertex 427.7 194.0 507.5 
     vertex 433.0 208.6 507.5 
   endloop 
 endfacet
 facet normal 0.000 0.000 1.000 
   outer loop
     vertex 385.2 223.3 507.5 
     vertex 433.0 208.6 507.5 
     vertex 436.8 223.6 507.5 
   endloop 
 endfacet
 facet normal 0.000 0.000 1.000 
   outer loop
     vertex 387.8 233.5 507.5 
     vertex 436.8 223.6 507.5 
     vertex 439.1 238.9 507.5 
   endloop 
 endfacet
 facet normal 0.000 0.000 1.000 
   outer loop
     vertex 389.4 243.9 507.5 
     vertex 439.1 238.9 507.5 
     vertex 439.9 254.4 507.5 
   endloop 
 endfacet
 facet normal 0.000 0.000 1.000 
   outer loop
     vertex 389.9 254.4 507.5 
     vertex 439.1 269.9 507.5 
     vertex 389.4 264.9 507.5 
   endloop 
 endfacet
 facet normal 0.000 0.000 1.000 
   outer loop
     vertex 389.4 264.9 507.5 
     vertex 436.8 285.2 507.5 
     vertex 387.8 275.3 507.5 
   endloop 
 endfacet
 facet normal 0.000 0.000 1.000 
   outer loop
     vertex 387.8 275.3 507.5 
     vertex 433.0 300.2 507.5 
     vertex 385.2 285.5 507.5 
   endloop 
 endfacet
 facet normal 0.000 0.000 1.000 
   outer loop
     vertex 385.2 285.5 507.5 
     vertex 427.7 314.8 507.5 
     vertex 381.6 295.4 507.5 
   endloop 
 endfacet
 facet normal 0.000 0.000 1.000 
   outer loop
     vertex 381.6 295.4 507.5 
     vertex 421.0 328.8 507.5 
     vertex 377.1 304.9 507.5 
   endloop 
 endfacet
 facet normal 0.000 0.000 1.000 
   outer loop
     vertex 377.1 304.9 507.5 
     vertex 412.9 342.0 507.5 
     vertex 371.6 313.8 507.5 
   endloop 
 endfacet
 facet normal 0.000 0.000 1.000 
   outer loop
     vertex 371.6 313.8 507.5 
     vertex 403.5 354.4 507.5 
     vertex 365.2 322.2 507.5 
   endloop 
 endfacet
 facet normal 0.000 0.000 1.000 
   outer loop
     vertex 365.2 322.2 507.5 
     vertex 393.0 365.7 507.5 
     vertex 358.1 329.9 507.5 
   endloop 
 endfacet
 facet normal 0.000 0.000 1.000 
   outer loop
     vertex 358.1 329.9 507.5 
     vertex 381.4 376.0 507.5 
     vertex 350.2 336.9 507.5 
   endloop 
 endfacet
 facet normal 0.000 0.000 1.000 
   outer loop
     vertex 350.2 336.9 507.5 
     vertex 368.8 385.0 507.5 
     vertex 341.6 343.0 507.5 
   endloop 
 endfacet
 facet normal 0.000 0.000 1.000 
   outer loop
     vertex 341.6 343.0 507.5 
     vertex 355.3 392.8 507.5 
     vertex 332.5 348.3 507.5 
   endloop 
 endfacet
 facet normal 0.000 0.000 1.000 
   outer loop
     vertex 332.5 348.3 507.5 
     vertex 341.2 399.2 507.5 
     vertex 322.9 352.6 507.5 
   endloop 
 endfacet
 facet normal 0.000 0.000 1.000 
   outer loop
     vertex 322.9 352.6 507.5 
     vertex 326.5 404.1 507.5 
     vertex 313.0 356.0 507.5 
   endloop 
 endfacet
 facet normal 0.000 0.000 1.000 
   outer loop
     vertex 313.0 356.0 507.5 
     vertex 311.4 407.5 507.5 
     vertex 302.7 358.3 507.5 
   endloop 
 endfacet
 facet normal 0.000 0.000 1.000 
   outer loop
     vertex 302.7 358.3 507.5 
     vertex 296.0 409.5 507.5 
     vertex 292.3 359.6 507.5 
   endloop 
 endfacet
 facet normal 0.000 0.000 1.000 
   outer loop
     vertex 292.3 359.6 507.5 
     vertex 280.5 409.9 507.5 
     vertex 281.8 359.9 507.5 
   endloop 
 endfacet
 facet normal 0.000 0.000 1.000 
   outer loop
     vertex 281.8 359.9 507.5 
     vertex 265.1 408.7 507.5 
     vertex 271.3 359.1 507.5 
   endloop 
 endfacet
 facet normal 0.000 0.000 1.000 
   outer loop
     vertex 271.3 359.1 507.5 
     vertex 249.8 406.0 507.5 
     vertex 260.9 357.3 507.5 
   endloop 
 endfacet
 facet normal 0.000 0.000 1.000 
   outer loop
     vertex 260.9 357.3 507.5 
     vertex 234.9 401.8 507.5 
     vertex 250.8 354.4 507.5 
   endloop 
 endfacet
 facet normal 0.000 0.000 1.000 
   outer loop
     vertex 250.8 354.4 507.5 
     vertex 220.4 396.1 507.5 
     vertex 241.0 350.6 507.5 
   endloop 
 endfacet
 facet normal 0.000 0.000 1.000 
   outer loop
     vertex 241.0 350.6 507.5 
     vertex 206.6 389.1 507.5 
     vertex 231.6 345.8 507.5 
   endloop 
 endfacet
 facet normal 0.000 0.000 1.000 
   outer loop
     vertex 231.6 345.8 507.5 
     vertex 193.6 380.7 507.5 
     vertex 222.8 340.1 507.5 
   endloop 
 endfacet
 facet normal 0.000 0.000 1.000 
   outer loop
     vertex 222.8 340.1 507.5 
     vertex 181.5 371.0 507.5 
     vertex 214.6 333.5 507.5 
   endloop 
 endfacet
 facet normal 0.000 0.000 1.000 
   outer loop
     vertex 214.6 333.5 507.5 
     vertex 170.4 360.2 507.5 
     vertex 207.1 326.2 507.5 
   endloop 
 endfacet
 facet normal 0.000 0.000 1.000 
   outer loop
     vertex 207.1 326.2 507.5 
     vertex 160.4 348.3 507.5 
     vertex 200.3 318.1 507.5 
   endloop 
 endfacet
 facet normal 0.000 0.000 1.000 
   outer loop
     vertex 200.3 318.1 507.5 
     vertex 151.7 335.5 507.5 
     vertex 194.4 309.4 507.5 
   endloop 
 endfacet
 facet normal 0.000 0.000 1.000 
   outer loop
     vertex 194.4 309.4 507.5 
     vertex 144.3 321.9 507.5 
     vertex 189.3 300.2 507.5 
   endloop 
 endfacet
 facet normal 0.000 0.000 1.000 
   outer loop
     vertex 189.3 300.2 507.5 
     vertex 138.3 307.6 507.5 
     vertex 185.3 290.5 507.5 
   endloop 
 endfacet
 facet normal 0.000 0.000 1.000 
   outer loop
     vertex 185.3 290.5 507.5 
     vertex 133.7 292.8 507.5 
     vertex 182.2 280.4 507.5 
   endloop 
 endfacet
 facet normal 0.000 0.000 1.000 
   outer loop
     vertex 182.2 280.4 507.5 
     vertex 130.6 277.6 507.5 
     vertex 180.1 270.1 507.5 
   endloop 
 endfacet
 facet normal 0.000 0.000 1.000 
   outer loop
     vertex 180.1 270.1 507.5 
     vertex 129.1 262.2 507.5 
     vertex 179.0 259.7 507.5 
   endloop 
 endfacet
 facet normal 0.000 0.000 1.000 
   outer loop
     vertex 179.0 259.7 507.5 
     vertex 129.1 246.6 507.5 
     vertex 179.0 249.1 507.5 
   endloop 
 endfacet
 facet normal 0.000 0.000 1.000 
   outer loop
     vertex 179.0 249.1 507.5 
     vertex 130.6 231.2 507.5 
     vertex 180.1 238.7 507.5 
   endloop 
 endfacet
 facet normal 0.000 0.000 1.000 
   outer loop
     vertex 180.1 238.7 507.5 
     vertex 133.7 216.0 507.5 
     vertex 182.2 228.4 507.5 
   endloop 
 endfacet
 facet normal 0.000 0.000 1.000 
   outer loop
     vertex 182.2 228.4 507.5 
     vertex 138.3 201.2 507.5 
     vertex 185.3 218.3 507.5 
   endloop 
 endfacet
 facet normal 0.000 0.000 1.000 
   outer loop
     vertex 185.3 218.3 507.5 
     vertex 144.3 186.9 507.5 
     vertex 189.3 208.6 507.5 
   endloop 
 endfacet
 facet normal 0.000 0.000 1.000 
   outer loop
     vertex 189.3 208.6 507.5 
     vertex 151.7 173.3 507.5 
     vertex 194.4 199.4 507.5 
   endloop 
 endfacet
 facet normal 0.000 0.000 1.000 
   outer loop
     vertex 194.4 199.4 507.5 
     vertex 160.4 160.5 507.5 
     vertex 200.3 190.7 507.5 
   endloop 
 endfacet
 facet normal 0.000 0.000 1.000 
   outer loop
     vertex 200.3 190.7 507.5 
     vertex 170.4 148.6 507.5 
     vertex 207.1 182.6 507.5 
   endloop 
 endfacet
 facet normal 0.000 0.000 1.000 
   outer loop
     vertex 207.1 182.6 507.5 
     vertex 181.5 137.8 507.5 
     vertex 214.6 175.3 507.5 
   endloop 
 endfacet
 facet normal 0.000 0.000 1.000 
   outer loop
     vertex 214.6 175.3 507.5 
     vertex 193.6 128.1 507.5 
     vertex 222.8 168.7 507.5 
   endloop 
 endfacet
 facet normal 0.000 0.000 1.000 
   outer loop
     vertex 222.8 168.7 507.5 
     vertex 206.7 119.7 507.5 
     vertex 231.7 163.0 507.5 
   endloop 
 endfacet
 facet normal 0.000 0.000 1.000 
   outer loop
     vertex 231.7 163.0 507.5 
     vertex 220.4 112.7 507.5 
     vertex 241.0 158.2 507.5 
   endloop 
 endfacet
 facet normal 0.000 0.000 1.000 
   outer loop
     vertex 241.0 158.2 507.5 
     vertex 234.9 107.0 507.5 
     vertex 250.8 154.4 507.5 
   endloop 
 endfacet
 facet normal 0.000 0.000 1.000 
   outer loop
     vertex 250.8 154.4 507.5 
     vertex 249.8 102.8 507.5 
     vertex 260.9 151.5 507.5 
   endloop 
 endfacet
 facet normal 0.000 0.000 1.000 
   outer loop
     vertex 260.9 151.5 507.5 
     vertex 265.1 100.1 507.5 
     vertex 271.3 149.7 507.5 
   endloop 
 endfacet
 facet normal 0.000 0.000 1.000 
   outer loop
     vertex 271.3 149.7 507.5 
     vertex 280.5 98.9 507.5 
     vertex 281.8 148.9 507.5 
   endloop 
 endfacet
 facet normal 0.000 0.000 1.000 
   outer loop
     vertex 281.8 148.9 507.5 
     vertex 296.0 99.3 507.5 
     vertex 292.3 149.2 507.5 
   endloop 
 endfacet
 facet normal 0.000 0.000 1.000 
   outer loop
     vertex 292.3 149.2 507.5 
     vertex 311.4 101.3 507.5 
     vertex 302.7 150.5 507.5 
   endloop 
 endfacet
 facet normal 0.000 0.000 1.000 
   outer loop
     vertex 302.7 150.5 507.5 
     vertex 326.5 104.7 507.5 
     vertex 313.0 152.8 507.5 
   endloop 
 endfacet
 facet normal 0.000 0.000 1.000 
   outer loop
     vertex 313.0 152.8 507.5 
     vertex 341.2 109.6 507.5 
     vertex 322.9 156.2 507.5 
   endloop 
 endfacet
 facet normal 0.000 0.000 1.000 
   outer loop
     vertex 322.9 156.2 507.5 
     vertex 355.3 116.0 507.5 
     vertex 332.5 160.5 507.5 
   endloop 
 endfacet
 facet normal 0.000 0.000 1.000 
   outer loop
     vertex 332.5 160.5 507.5 
     vertex 368.8 123.8 507.5 
     vertex 341.6 165.8 507.5 
   endloop 
 endfacet
 facet normal 0.000 0.000 1.000 
   outer loop
     vertex 341.6 165.8 507.5 
     vertex 381.4 132.8 507.5 
     vertex 350.2 171.9 507.5 
   endloop 
 endfacet
 facet normal 0.000 0.000 1.000 
   outer loop
     vertex 350.2 171.9 507.5 
     vertex 393.0 143.1 507.5 
     vertex 358.1 178.9 507.5 
   endloop 
 endfacet
 facet normal 0.000 0.000 1.000 
   outer loop
     vertex 358.1 178.9 507.5 
     vertex 403.5 154.4 507.5 
     vertex 365.2 186.6 507.5 
   endloop 
 endfacet
 facet normal 0.000 0.000 1.000 
   outer loop
     vertex 365.2 186.6 507.5 
     vertex 412.9 166.8 507.5 
     vertex 371.6 195.0 507.5 
   endloop 
 endfacet
 facet normal 0.000 0.000 1.000 
   outer loop
     vertex 371.6 195.0 507.5 
     vertex 421.0 180.0 507.5 
     vertex 377.1 203.9 507.5 
   endloop 
 endfacet
 facet normal 0.000 0.000 1.000 
   outer loop
     vertex 377.1 203.9 507.5 
     vertex 427.7 194.0 507.5 
     vertex 381.6 213.4 507.5 
   endloop 
 endfacet
 facet normal 0.000 0.000 1.000 
   outer loop
     vertex 381.6 213.4 507.5 
     vertex 433.0 208.6 507.5 
     vertex 385.2 223.3 507.5 
   endloop 
 endfacet
 facet normal 0.000 0.000 1.000 
   outer loop
     vertex 385.2 223.3 507.5 
     vertex 436.8 223.6 507.5 
     vertex 387.8 233.5 507.5 
   endloop 
 endfacet
 facet normal 0.000 0.000 1.000 
   outer loop
     vertex 387.8 233.5 507.5 
     vertex 439.1 238.9 507.5 
     vertex 389.4 243.9 507.5 
   endloop 
 endfacet
 facet normal 0.000 0.000 1.000 
   outer loop
     vertex 389.4 243.9 507.5 
     vertex 439.9 254.4 507.5 
     vertex 389.9 254.4 507.5 
   endloop 
 endfacet
 facet normal 0.000 0.000 -1.000 
   outer loop
     vertex 389.9 254.4 367.5 
     vertex 439.1 269.9 367.5 
     vertex 439.9 254.4 367.5 
   endloop 
 endfacet
 facet normal 0.000 0.000 -1.000 
   outer loop
     vertex 389.4 264.9 367.5 
     vertex 436.8 285.2 367.5 
     vertex 439.1 269.9 367.5 
   endloop 
 endfacet
 facet normal 0.000 0.000 -1.000 
   outer loop
     vertex 387.8 275.3 367.5 
     vertex 433.0 300.2 367.5 
     vertex 436.8 285.2 367.5 
   endloop 
 endfacet
 facet normal 0.000 0.000 -1.000 
   outer loop
     vertex 385.2 285.5 367.5 
     vertex 427.7 314.8 367.5 
     vertex 433.0 300.2 367.5 
   endloop 
 endfacet
 facet normal 0.000 0.000 -1.000 
   outer loop
     vertex 381.6 295.4 367.5 
     vertex 421.0 328.8 367.5 
     vertex 427.7 314.8 367.5 
   endloop 
 endfacet
 facet normal 0.000 0.000 -1.000 
   outer loop
     vertex 377.1 304.9 367.5 
     vertex 412.9 342.0 367.5 
     vertex 421.0 328.8 367.5 
   endloop 
 endfacet
 facet normal 0.000 0.000 -1.000 
   outer loop
     vertex 371.6 313.8 367.5 
     vertex 403.5 354.4 367.5 
     vertex 412.9 342.0 367.5 
   endloop 
 endfacet
 facet normal 0.000 0.000 -1.000 
   outer loop
     vertex 365.2 322.2 367.5 
     vertex 393.0 365.7 367.5 
     vertex 403.5 354.4 367.5 
   endloop 
 endfacet
 facet normal 0.000 0.000 -1.000 
   outer loop
     vertex 358.1 329.9 367.5 
     vertex 381.4 376.0 367.5 
     vertex 393.0 365.7 367.5 
   endloop 
 endfacet
 facet normal 0.000 0.000 -1.000 
   outer loop
     vertex 350.2 336.9 367.5 
     vertex 368.8 385.0 367.5 
     vertex 381.4 376.0 367.5 
   endloop 
 endfacet
 facet normal 0.000 0.000 -1.000 
   outer loop
     vertex 341.6 343.0 367.5 
     vertex 355.3 392.8 367.5 
     vertex 368.8 385.0 367.5 
   endloop 
 endfacet
 facet normal 0.000 0.000 -1.000 
   outer loop
     vertex 332.5 348.3 367.5 
     vertex 341.2 399.2 367.5 
     vertex 355.3 392.8 367.5 
   endloop 
 endfacet
 facet normal 0.000 0.000 -1.000 
   outer loop
     vertex 322.9 352.6 367.5 
     vertex 326.5 404.1 367.5 
     vertex 341.2 399.2 367.5 
   endloop 
 endfacet
 facet normal 0.000 0.000 -1.000 
   outer loop
     vertex 313.0 356.0 367.5 
     vertex 311.4 407.5 367.5 
     vertex 326.5 404.1 367.5 
   endloop 
 endfacet
 facet normal 0.000 0.000 -1.000 
   outer loop
     vertex 302.7 358.3 367.5 
     vertex 296.0 409.5 367.5 
     vertex 311.4 407.5 367.5 
   endloop 
 endfacet
 facet normal 0.000 0.000 -1.000 
   outer loop
     vertex 292.3 359.6 367.5 
     vertex 280.5 409.9 367.5 
     vertex 296.0 409.5 367.5 
   endloop 
 endfacet
 facet normal 0.000 0.000 -1.000 
   outer loop
     vertex 281.8 359.9 367.5 
     vertex 265.1 408.7 367.5 
     vertex 280.5 409.9 367.5 
   endloop 
 endfacet
 facet normal 0.000 0.000 -1.000 
   outer loop
     vertex 271.3 359.1 367.5 
     vertex 249.8 406.0 367.5 
     vertex 265.1 408.7 367.5 
   endloop 
 endfacet
 facet normal 0.000 0.000 -1.000 
   outer loop
     vertex 260.9 357.3 367.5 
     vertex 234.9 401.8 367.5 
     vertex 249.8 406.0 367.5 
   endloop 
 endfacet
 facet normal 0.000 0.000 -1.000 
   outer loop
     vertex 250.8 354.4 367.5 
     vertex 220.4 396.1 367.5 
     vertex 234.9 401.8 367.5 
   endloop 
 endfacet
 facet normal 0.000 0.000 -1.000 
   outer loop
     vertex 241.0 350.6 367.5 
     vertex 206.6 389.1 367.5 
     vertex 220.4 396.1 367.5 
   endloop 
 endfacet
 facet normal 0.000 0.000 -1.000 
   outer loop
     vertex 231.6 345.8 367.5 
     vertex 193.6 380.7 367.5 
     vertex 206.6 389.1 367.5 
   endloop 
 endfacet
 facet normal 0.000 0.000 -1.000 
   outer loop
     vertex 222.8 340.1 367.5 
     vertex 181.5 371.0 367.5 
     vertex 193.6 380.7 367.5 
   endloop 
 endfacet
 facet normal 0.000 0.000 -1.000 
   outer loop
     vertex 214.6 333.5 367.5 
     vertex 170.4 360.2 367.5 
     vertex 181.5 371.0 367.5 
   endloop 
 endfacet
 facet normal 0.000 0.000 -1.000 
   outer loop
     vertex 207.1 326.2 367.5 
     vertex 160.4 348.3 367.5 
     vertex 170.4 360.2 367.5 
   endloop 
 endfacet
 facet normal 0.000 0.000 -1.000 
   outer loop
     vertex 200.3 318.1 367.5 
     vertex 151.7 335.5 367.5 
     vertex 160.4 348.3 367.5 
   endloop 
 endfacet
 facet normal 0.000 0.000 -1.000 
   outer loop
     vertex 194.4 309.4 367.5 
     vertex 144.3 321.9 367.5 
     vertex 151.7 335.5 367.5 
   endloop 
 endfacet
 facet normal 0.000 0.000 -1.000 
   outer loop
     vertex 189.3 300.2 367.5 
     vertex 138.3 307.6 367.5 
     vertex 144.3 321.9 367.5 
   endloop 
 endfacet
 facet normal 0.000 0.000 -1.000 
   outer loop
     vertex 185.3 290.5 367.5 
     vertex 133.7 292.8 367.5 
     vertex 138.3 307.6 367.5 
   endloop 
 endfacet
 facet normal 0.000 0.000 -1.000 
   outer loop
     vertex 182.2 280.4 367.5 
     vertex 130.6 277.6 367.5 
     vertex 133.7 292.8 367.5 
   endloop 
 endfacet
 facet normal 0.000 0.000 -1.000 
   outer loop
     vertex 180.1 270.1 367.5 
     vertex 129.1 262.2 367.5 
     vertex 130.6 277.6 367.5 
   endloop 
 endfacet
 facet normal 0.000 0.000 -1.000 
   outer loop
     vertex 179.0 259.7 367.5 
     vertex 129.1 246.6 367.5 
     vertex 129.1 262.2 367.5 
   endloop 
 endfacet
 facet normal 0.000 0.000 -1.000 
   outer loop
     vertex 179.0 249.1 367.5 
     vertex 130.6 231.2 367.5 
     vertex 129.1 246.6 367.5 
   endloop 
 endfacet
 facet normal 0.000 0.000 -1.000 
   outer loop
     vertex 180.1 238.7 367.5 
     vertex 133.7 216.0 367.5 
     vertex 130.6 231.2 367.5 
   endloop 
 endfacet
 facet normal 0.000 0.000 -1.000 
   outer loop
     vertex 182.2 228.4 367.5 
     vertex 138.3 201.2 367.5 
     vertex 133.7 216.0 367.5 
   endloop 
 endfacet
 facet normal 0.000 0.000 -1.000 
   outer loop
     vertex 185.3 218.3 367.5 
     vertex 144.3 186.9 367.5 
     vertex 138.3 201.2 367.5 
   endloop 
 endfacet
 facet normal 0.000 0.000 -1.000 
   outer loop
     vertex 189.3 208.6 367.5 
     vertex 151.7 173.3 367.5 
     vertex 144.3 186.9 367.5 
   endloop 
 endfacet
 facet normal 0.000 0.000 -1.000 
   outer loop
     vertex 194.4 199.4 367.5 
     vertex 160.4 160.5 367.5 
     vertex 151.7 173.3 367.5 
   endloop 
 endfacet
 facet normal 0.000 0.000 -1.000 
   outer loop
     vertex 200.3 190.7 367.5 
     vertex 170.4 148.6 367.5 
     vertex 160.4 160.5 367.5 
   endloop 
 endfacet
 facet normal 0.000 0.000 -1.000 
   outer loop
     vertex 207.1 182.6 367.5 
     vertex 181.5 137.8 367.5 
     vertex 170.4 148.6 367.5 
   endloop 
 endfacet
 facet normal 0.000 0.000 -1.000 
   outer loop
     vertex 214.6 175.3 367.5 
     vertex 193.6 128.1 367.5 
     vertex 181.5 137.8 367.5 
   endloop 
 endfacet
 facet normal 0.000 0.000 -1.000 
   outer loop
     vertex 222.8 168.7 367.5 
     vertex 206.7 119.7 367.5 
     vertex 193.6 128.1 367.5 
   endloop 
 endfacet
 facet normal 0.000 0.000 -1.000 
   outer loop
     vertex 231.7 163.0 367.5 
     vertex 220.4 112.7 367.5 
     vertex 206.7 119.7 367.5 
   endloop 
 endfacet
 facet normal 0.000 0.000 -1.000 
   outer loop
     vertex 241.0 158.2 367.5 
     vertex 234.9 107.0 367.5 
     vertex 220.4 112.7 367.5 
   endloop 
 endfacet
 facet normal 0.000 0.000 -1.000 
   outer loop
     vertex 250.8 154.4 367.5 
     vertex 249.8 102.8 367.5 
     vertex 234.9 107.0 367.5 
   endloop 
 endfacet
 facet normal 0.000 0.000 -1.000 
   outer loop
     vertex 260.9 151.5 367.5 
     vertex 265.1 100.1 367.5 
     vertex 249.8 102.8 367.5 
   endloop 
 endfacet
 facet normal 0.000 0.000 -1.000 
   outer loop
     vertex 271.3 149.7 367.5 
     vertex 280.5 98.9 367.5 
     vertex 265.1 100.1 367.5 
   endloop 
 endfacet
 facet normal 0.000 0.000 -1.000 
   outer loop
     vertex 281.8 148.9 367.5 
     vertex 296.0 99.3 367.5 
     vertex 280.5 98.9 367.5 
   endloop 
 endfacet
 facet normal 0.000 0.000 -1.000 
   outer loop
     vertex 292.3 149.2 367.5 
     vertex 311.4 101.3 367.5 
     vertex 296.0 99.3 367.5 
   endloop 
 endfacet
 facet normal 0.000 0.000 -1.000 
   outer loop
     vertex 302.7 150.5 367.5 
     vertex 326.5 104.7 367.5 
     vertex 311.4 101.3 367.5 
   endloop 
 endfacet
 facet normal 0.000 0.000 -1.000 
   outer loop
     vertex 313.0 152.8 367.5 
     vertex 341.2 109.6 367.5 
     vertex 326.5 104.7 367.5 
   endloop 
 endfacet
 facet normal 0.000 0.000 -1.000 
   outer loop
     vertex 322.9 156.2 367.5 
     vertex 355.3 116.0 367.5 
     vertex 341.2 109.6 367.5 
   endloop 
 endfacet
 facet normal 0.000 0.000 -1.000 
   outer loop
     vertex 332.5 160.5 367.5 
     vertex 368.8 123.8 367.5 
     vertex 355.3 116.0 367.5 
   endloop 
 endfacet
 facet normal 0.000 0.000 -1.000 
   outer loop
     vertex 341.6 165.8 367.5 
     vertex 381.4 132.8 367.5 
     vertex 368.8 123.8 367.5 
   endloop 
 endfacet
 facet normal 0.000 0.000 -1.000 
   outer loop
     vertex 350.2 171.9 367.5 
     vertex 393.0 143.1 367.5 
     vertex 381.4 132.8 367.5 
   endloop 
 endfacet
 facet normal 0.000 0.000 -1.000 
   outer loop
     vertex 358.1 178.9 367.5 
     vertex 403.5 154.4 367.5 
     vertex 393.0 143.1 367.5 
   endloop 
 endfacet
 facet normal 0.000 0.000 -1.000 
   outer loop
     vertex 365.2 186.6 367.5 
     vertex 412.9 166.8 367.5 
     vertex 403.5 154.4 367.5 
   endloop 
 endfacet
 facet normal 0.000 0.000 -1.000 
   outer loop
     vertex 371.6 195.0 367.5 
     vertex 421.0 180.0 367.5 
     vertex 412.9 166.8 367.5 
   endloop 
 endfacet
 facet normal 0.000 0.000 -1.000 
   outer loop
     vertex 377.1 203.9 367.5 
     vertex 427.7 194.0 367.5 
     vertex 421.0 180.0 367.5 
   endloop 
 endfacet
 facet normal 0.000 0.000 -1.000 
   outer loop
     vertex 381.6 213.4 367.5 
     vertex 433.0 208.6 367.5 
     vertex 427.7 194.0 367.5 
   endloop 
 endfacet
 facet normal 0.000 0.000 -1.000 
   outer loop
     vertex 385.2 223.3 367.5 
     vertex 436.8 223.6 367.5 
     vertex 433.0 208.6 367.5 
   endloop 
 endfacet
 facet normal 0.000 0.000 -1.000 
   outer loop
     vertex 387.8 233.5 367.5 
     vertex 439.1 238.9 367.5 
     vertex 436.8 223.6 367.5 
   endloop 
 endfacet
 facet normal 0.000 0.000 -1.000 
   outer loop
     vertex 389.4 243.9 367.5 
     vertex 439.9 254.4 367.5 
     vertex 439.1 238.9 367.5 
   endloop 
 endfacet
 facet normal 0.000 0.000 -1.000 
   outer loop
     vertex 389.9 254.4 367.5 
     vertex 389.4 264.9 367.5 
     vertex 439.1 269.9 367.5 
   endloop 
 endfacet
 facet normal 0.000 0.000 -1.000 
   outer loop
     vertex 389.4 264.9 367.5 
     vertex 387.8 275.3 367.5 
     vertex 436.8 285.2 367.5 
   endloop 
 endfacet
 facet normal 0.000 0.000 -1.000 
   outer loop
     vertex 387.8 275.3 367.5 
     vertex 385.2 285.5 367.5 
     vertex 433.0 300.2 367.5 
   endloop 
 endfacet
 facet normal 0.000 0.000 -1.000 
   outer loop
     vertex 385.2 285.5 367.5 
     vertex 381.6 295.4 367.5 
     vertex 427.7 314.8 367.5 
   endloop 
 endfacet
 facet normal 0.000 0.000 -1.000 
   outer loop
     vertex 381.6 295.4 367.5 
     vertex 377.1 304.9 367.5 
     vertex 421.0 328.8 367.5 
   endloop 
 endfacet
 facet normal 0.000 0.000 -1.000 
   outer loop
     vertex 377.1 304.9 367.5 
     vertex 371.6 313.8 367.5 
     vertex 412.9 342.0 367.5 
   endloop 
 endfacet
 facet normal 0.000 0.000 -1.000 
   outer loop
     vertex 371.6 313.8 367.5 
     vertex 365.2 322.2 367.5 
     vertex 403.5 354.4 367.5 
   endloop 
 endfacet
 facet normal 0.000 0.000 -1.000 
   outer loop
     vertex 365.2 322.2 367.5 
     vertex 358.1 329.9 367.5 
     vertex 393.0 365.7 367.5 
   endloop 
 endfacet
 facet normal 0.000 0.000 -1.000 
   outer loop
     vertex 358.1 329.9 367.5 
     vertex 350.2 336.9 367.5 
     vertex 381.4 376.0 367.5 
   endloop 
 endfacet
 facet normal 0.000 0.000 -1.000 
   outer loop
     vertex 350.2 336.9 367.5 
     vertex 341.6 343.0 367.5 
     vertex 368.8 385.0 367.5 
   endloop 
 endfacet
 facet normal 0.000 0.000 -1.000 
   outer loop
     vertex 341.6 343.0 367.5 
     vertex 332.5 348.3 367.5 
     vertex 355.3 392.8 367.5 
   endloop 
 endfacet
 facet normal 0.000 0.000 -1.000 
   outer loop
     vertex 332.5 348.3 367.5 
     vertex 322.9 352.6 367.5 
     vertex 341.2 399.2 367.5 
   endloop 
 endfacet
 facet normal 0.000 0.000 -1.000 
   outer loop
     vertex 322.9 352.6 367.5 
     vertex 313.0 356.0 367.5 
     vertex 326.5 404.1 367.5 
   endloop 
 endfacet
 facet normal 0.000 0.000 -1.000 
   outer loop
     vertex 313.0 356.0 367.5 
     vertex 302.7 358.3 367.5 
     vertex 311.4 407.5 367.5 
   endloop 
 endfacet
 facet normal 0.000 0.000 -1.000 
   outer loop
     vertex 302.7 358.3 367.5 
     vertex 292.3 359.6 367.5 
     vertex 296.0 409.5 367.5 
   endloop 
 endfacet
 facet normal 0.000 0.000 -1.000 
   outer loop
     vertex 292.3 359.6 367.5 
     vertex 281.8 359.9 367.5 
     vertex 280.5 409.9 367.5 
   endloop 
 endfacet
 facet normal 0.000 0.000 -1.000 
   outer loop
     vertex 281.8 359.9 367.5 
     vertex 271.3 359.1 367.5 
     vertex 265.1 408.7 367.5 
   endloop 
 endfacet
 facet normal 0.000 0.000 -1.000 
   outer loop
     vertex 271.3 359.1 367.5 
     vertex 260.9 357.3 367.5 
     vertex 249.8 406.0 367.5 
   endloop 
 endfacet
 facet normal 0.000 0.000 -1.000 
   outer loop
     vertex 260.9 357.3 367.5 
     vertex 250.8 354.4 367.5 
     vertex 234.9 401.8 367.5 
   endloop 
 endfacet
 facet normal 0.000 0.000 -1.000 
   outer loop
     vertex 250.8 354.4 367.5 
     vertex 241.0 350.6 367.5 
     vertex 220.4 396.1 367.5 
   endloop 
 endfacet
 facet normal 0.000 0.000 -1.000 
   outer loop
     vertex 241.0 350.6 367.5 
     vertex 231.6 345.8 367.5 
     vertex 206.6 389.1 367.5 
   endloop 
 endfacet
 facet normal 0.000 0.000 -1.000 
   outer loop
     vertex 231.6 345.8 367.5 
     vertex 222.8 340.1 367.5 
     vertex 193.6 380.7 367.5 
   endloop 
 endfacet
 facet normal 0.000 0.000 -1.000 
   outer loop
     vertex 222.8 340.1 367.5 
     vertex 214.6 333.5 367.5 
     vertex 181.5 371.0 367.5 
   endloop 
 endfacet
 facet normal 0.000 0.000 -1.000 
   outer loop
     vertex 214.6 333.5 367.5 
     vertex 207.1 326.2 367.5 
     vertex 170.4 360.2 367.5 
   endloop 
 endfacet
 facet normal 0.000 0.000 -1.000 
   outer loop
     vertex 207.1 326.2 367.5 
     vertex 200.3 318.1 367.5 
     vertex 160.4 348.3 367.5 
   endloop 
 endfacet
 facet normal 0.000 0.000 -1.000 
   outer loop
     vertex 200.3 318.1 367.5 
     vertex 194.4 309.4 367.5 
     vertex 151.7 335.5 367.5 
   endloop 
 endfacet
 facet normal 0.000 0.000 -1.000 
   outer loop
     vertex 194.4 309.4 367.5 
     vertex 189.3 300.2 367.5 
     vertex 144.3 321.9 367.5 
   endloop 
 endfacet
 facet normal 0.000 0.000 -1.000 
   outer loop
     vertex 189.3 300.2 367.5 
     vertex 185.3 290.5 367.5 
     vertex 138.3 307.6 367.5 
   endloop 
 endfacet
 facet normal 0.000 0.000 -1.000 
   outer loop
     vertex 185.3 290.5 367.5 
     vertex 182.2 280.4 367.5 
     vertex 133.7 292.8 367.5 
   endloop 
 endfacet
 facet normal 0.000 0.000 -1.000 
   outer loop
     vertex 182.2 280.4 367.5 
     vertex 180.1 270.1 367.5 
     vertex 130.6 277.6 367.5 
   endloop 
 endfacet
 facet normal 0.000 0.000 -1.000 
   outer loop
     vertex 180.1 270.1 367.5 
     vertex 179.0 259.7 367.5 
     vertex 129.1 262.2 367.5 
   endloop 
 endfacet
 facet normal 0.000 0.000 -1.000 
   outer loop
     vertex 179.0 259.7 367.5 
     vertex 179.0 249.1 367.5 
     vertex 129.1 246.6 367.5 
   endloop 
 endfacet
 facet normal 0.000 0.000 -1.000 
   outer loop
     vertex 179.0 249.1 367.5 
     vertex 180.1 238.7 367.5 
     vertex 130.6 231.2 367.5 
   endloop 
 endfacet
 facet normal 0.000 0.000 -1.000 
   outer loop
     vertex 180.1 238.7 367.5 
     vertex 182.2 228.4 367.5 
     vertex 133.7 216.0 367.5 
   endloop 
 endfacet
 facet normal 0.000 0.000 -1.000 
   outer loop
     vertex 182.2 228.4 367.5 
     vertex 185.3 218.3 367.5 
     vertex 138.3 201.2 367.5 
   endloop 
 endfacet
 facet normal 0.000 0.000 -1.000 
   outer loop
     vertex 185.3 218.3 367.5 
     vertex 189.3 208.6 367.5 
     vertex 144.3 186.9 367.5 
   endloop 
 endfacet
 facet normal 0.000 0.000 -1.000 
   outer loop
     vertex 189.3 208.6 367.5 
     vertex 194.4 199.4 367.5 
     vertex 151.7 173.3 367.5 
   endloop 
 endfacet
 facet normal 0.000 0.000 -1.000 
   outer loop
     vertex 194.4 199.4 367.5 
     vertex 200.3 190.7 367.5 
     vertex 160.4 160.5 367.5 
   endloop 
 endfacet
 facet normal 0.000 0.000 -1.000 
   outer loop
     vertex 200.3 190.7 367.5 
     vertex 207.1 182.6 367.5 
     vertex 170.4 148.6 367.5 
   endloop 
 endfacet
 facet normal 0.000 0.000 -1.000 
   outer loop
     vertex 207.1 182.6 367.5 
     vertex 214.6 175.3 367.5 
     vertex 181.5 137.8 367.5 
   endloop 
 endfacet
 facet normal 0.000 0.000 -1.000 
   outer loop
     vertex 214.6 175.3 367.5 
     vertex 222.8 168.7 367.5 
     vertex 193.6 128.1 367.5 
   endloop 
 endfacet
 facet normal 0.000 0.000 -1.000 
   outer loop
     vertex 222.8 168.7 367.5 
     vertex 231.7 163.0 367.5 
     vertex 206.7 119.7 367.5 
   endloop 
 endfacet
 facet normal 0.000 0.000 -1.000 
   outer loop
     vertex 231.7 163.0 367.5 
     vertex 241.0 158.2 367.5 
     vertex 220.4 112.7 367.5 
   endloop 
 endfacet
 facet normal 0.000 0.000 -1.000 
   outer loop
     vertex 241.0 158.2 367.5 
     vertex 250.8 154.4 367.5 
     vertex 234.9 107.0 367.5 
   endloop 
 endfacet
 facet normal 0.000 0.000 -1.000 
   outer loop
     vertex 250.8 154.4 367.5 
     vertex 260.9 151.5 367.5 
     vertex 249.8 102.8 367.5 
   endloop 
 endfacet
 facet normal 0.000 0.000 -1.000 
   outer loop
     vertex 260.9 151.5 367.5 
     vertex 271.3 149.7 367.5 
     vertex 265.1 100.1 367.5 
   endloop 
 endfacet
 facet normal 0.000 0.000 -1.000 
   outer loop
     vertex 271.3 149.7 367.5 
     vertex 281.8 148.9 367.5 
     vertex 280.5 98.9 367.5 
   endloop 
 endfacet
 facet normal 0.000 0.000 -1.000 
   outer loop
     vertex 281.8 148.9 367.5 
     vertex 292.3 149.2 367.5 
     vertex 296.0 99.3 367.5 
   endloop 
 endfacet
 facet normal 0.000 0.000 -1.000 
   outer loop
     vertex 292.3 149.2 367.5 
     vertex 302.7 150.5 367.5 
     vertex 311.4 101.3 367.5 
   endloop 
 endfacet
 facet normal 0.000 0.000 -1.000 
   outer loop
     vertex 302.7 150.5 367.5 
     vertex 313.0 152.8 367.5 
     vertex 326.5 104.7 367.5 
   endloop 
 endfacet
 facet normal 0.000 0.000 -1.000 
   outer loop
     vertex 313.0 152.8 367.5 
     vertex 322.9 156.2 367.5 
     vertex 341.2 109.6 367.5 
   endloop 
 endfacet
 facet normal 0.000 0.000 -1.000 
   outer loop
     vertex 322.9 156.2 367.5 
     vertex 332.5 160.5 367.5 
     vertex 355.3 116.0 367.5 
   endloop 
 endfacet
 facet normal 0.000 0.000 -1.000 
   outer loop
     vertex 332.5 160.5 367.5 
     vertex 341.6 165.8 367.5 
     vertex 368.8 123.8 367.5 
   endloop 
 endfacet
 facet normal 0.000 0.000 -1.000 
   outer loop
     vertex 341.6 165.8 367.5 
     vertex 350.2 171.9 367.5 
     vertex 381.4 132.8 367.5 
   endloop 
 endfacet
 facet normal 0.000 0.000 -1.000 
   outer loop
     vertex 350.2 171.9 367.5 
     vertex 358.1 178.9 367.5 
     vertex 393.0 143.1 367.5 
   endloop 
 endfacet
 facet normal 0.000 0.000 -1.000 
   outer loop
     vertex 358.1 178.9 367.5 
     vertex 365.2 186.6 367.5 
     vertex 403.5 154.4 367.5 
   endloop 
 endfacet
 facet normal 0.000 0.000 -1.000 
   outer loop
     vertex 365.2 186.6 367.5 
     vertex 371.6 195.0 367.5 
     vertex 412.9 166.8 367.5 
   endloop 
 endfacet
 facet normal 0.000 0.000 -1.000 
   outer loop
     vertex 371.6 195.0 367.5 
     vertex 377.1 203.9 367.5 
     vertex 421.0 180.0 367.5 
   endloop 
 endfacet
 facet normal 0.000 0.000 -1.000 
   outer loop
     vertex 377.1 203.9 367.5 
     vertex 381.6 213.4 367.5 
     vertex 427.7 194.0 367.5 
   endloop 
 endfacet
 facet normal 0.000 0.000 -1.000 
   outer loop
     vertex 381.6 213.4 367.5 
     vertex 385.2 223.3 367.5 
     vertex 433.0 208.6 367.5 
   endloop 
 endfacet
 facet normal 0.000 0.000 -1.000 
   outer loop
     vertex 385.2 223.3 367.5 
     vertex 387.8 233.5 367.5 
     vertex 436.8 223.6 367.5 
   endloop 
 endfacet
 facet normal 0.000 0.000 -1.000 
   outer loop
     vertex 387.8 233.5 367.5 
     vertex 389.4 243.9 367.5 
     vertex 439.1 238.9 367.5 
   endloop 
 endfacet
 facet normal 0.000 0.000 -1.000 
   outer loop
     vertex 389.4 243.9 367.5 
     vertex 389.9 254.4 367.5 
     vertex 439.9 254.4 367.5 
   endloop 
 endfacet
 facet normal 0.999 0.050 0.000 
   outer loop
     vertex 439.1 269.9 507.5 
     vertex 439.9 254.4 507.5 
     vertex 439.9 254.4 367.5 
   endloop 
 endfacet
 facet normal 0.989 0.149 0.000 
   outer loop
     vertex 436.8 285.2 507.5 
     vertex 439.1 269.9 507.5 
     vertex 439.1 269.9 367.5 
   endloop 
 endfacet
 facet normal 0.969 0.247 0.000 
   outer loop
     vertex 433.0 300.2 507.5 
     vertex 436.8 285.2 507.5 
     vertex 436.8 285.2 367.5 
   endloop 
 endfacet
 facet normal 0.940 0.342 0.000 
   outer loop
     vertex 427.7 314.8 507.5 
     vertex 433.0 300.2 507.5 
     vertex 433.0 300.2 367.5 
   endloop 
 endfacet
 facet normal 0.901 0.434 0.000 
   outer loop
     vertex 421.0 328.8 507.5 
     vertex 427.7 314.8 507.5 
     vertex 427.7 314.8 367.5 
   endloop 
 endfacet
 facet normal 0.853 0.521 0.000 
   outer loop
     vertex 412.9 342.0 507.5 
     vertex 421.0 328.8 507.5 
     vertex 421.0 328.8 367.5 
   endloop 
 endfacet
 facet normal 0.797 0.604 0.000 
   outer loop
     vertex 403.5 354.4 507.5 
     vertex 412.9 342.0 507.5 
     vertex 412.9 342.0 367.5 
   endloop 
 endfacet
 facet normal 0.733 0.680 0.000 
   outer loop
     vertex 393.0 365.7 507.5 
     vertex 403.5 354.4 507.5 
     vertex 403.5 354.4 367.5 
   endloop 
 endfacet
 facet normal 0.662 0.750 0.000 
   outer loop
     vertex 381.4 376.0 507.5 
     vertex 393.0 365.7 507.5 
     vertex 393.0 365.7 367.5 
   endloop 
 endfacet
 facet normal 0.584 0.812 0.000 
   outer loop
     vertex 368.8 385.0 507.5 
     vertex 381.4 376.0 507.5 
     vertex 381.4 376.0 367.5 
   endloop 
 endfacet
 facet normal 0.500 0.866 0.000 
   outer loop
     vertex 355.3 392.8 507.5 
     vertex 368.8 385.0 507.5 
     vertex 368.8 385.0 367.5 
   endloop 
 endfacet
 facet normal 0.411 0.912 0.000 
   outer loop
     vertex 341.2 399.2 507.5 
     vertex 355.3 392.8 507.5 
     vertex 355.3 392.8 367.5 
   endloop 
 endfacet
 facet normal 0.318 0.948 0.000 
   outer loop
     vertex 326.5 404.1 507.5 
     vertex 341.2 399.2 507.5 
     vertex 341.2 399.2 367.5 
   endloop 
 endfacet
 facet normal 0.223 0.975 0.000 
   outer loop
     vertex 311.4 407.5 507.5 
     vertex 326.5 404.1 507.5 
     vertex 326.5 404.1 367.5 
   endloop 
 endfacet
 facet normal 0.124 0.992 0.000 
   outer loop
     vertex 296.0 409.5 507.5 
     vertex 311.4 407.5 507.5 
     vertex 311.4 407.5 367.5 
   endloop 
 endfacet
 facet normal 0.025 1.000 0.000 
   outer loop
     vertex 280.5 409.9 507.5 
     vertex 296.0 409.5 507.5 
     vertex 296.0 409.5 367.5 
   endloop 
 endfacet
 facet normal -0.075 0.997 0.000 
   outer loop
     vertex 265.1 408.7 507.5 
     vertex 280.5 409.9 507.5 
     vertex 280.5 409.9 367.5 
   endloop 
 endfacet
 facet normal -0.174 0.985 0.000 
   outer loop
     vertex 249.8 406.0 507.5 
     vertex 265.1 408.7 507.5 
     vertex 265.1 408.7 367.5 
   endloop 
 endfacet
 facet normal -0.271 0.963 0.000 
   outer loop
     vertex 234.9 401.8 507.5 
     vertex 249.8 406.0 507.5 
     vertex 249.8 406.0 367.5 
   endloop 
 endfacet
 facet normal -0.365 0.931 0.000 
   outer loop
     vertex 220.4 396.1 507.5 
     vertex 234.9 401.8 507.5 
     vertex 234.9 401.8 367.5 
   endloop 
 endfacet
 facet normal -0.456 0.890 0.000 
   outer loop
     vertex 206.6 389.1 507.5 
     vertex 220.4 396.1 507.5 
     vertex 220.4 396.1 367.5 
   endloop 
 endfacet
 facet normal -0.543 0.840 0.000 
   outer loop
     vertex 193.6 380.7 507.5 
     vertex 206.6 389.1 507.5 
     vertex 206.6 389.1 367.5 
   endloop 
 endfacet
 facet normal -0.623 0.782 0.000 
   outer loop
     vertex 181.5 371.0 507.5 
     vertex 193.6 380.7 507.5 
     vertex 193.6 380.7 367.5 
   endloop 
 endfacet
 facet normal -0.698 0.716 0.000 
   outer loop
     vertex 170.4 360.2 507.5 
     vertex 181.5 371.0 507.5 
     vertex 181.5 371.0 367.5 
   endloop 
 endfacet
 facet normal -0.766 0.643 0.000 
   outer loop
     vertex 160.4 348.3 507.5 
     vertex 170.4 360.2 507.5 
     vertex 170.4 360.2 367.5 
   endloop 
 endfacet
 facet normal -0.826 0.563 0.000 
   outer loop
     vertex 151.7 335.5 507.5 
     vertex 160.4 348.3 507.5 
     vertex 160.4 348.3 367.5 
   endloop 
 endfacet
 facet normal -0.878 0.478 0.000 
   outer loop
     vertex 144.3 321.9 507.5 
     vertex 151.7 335.5 507.5 
     vertex 151.7 335.5 367.5 
   endloop 
 endfacet
 facet normal -0.921 0.388 0.000 
   outer loop
     vertex 138.3 307.6 507.5 
     vertex 144.3 321.9 507.5 
     vertex 144.3 321.9 367.5 
   endloop 
 endfacet
 facet normal -0.956 0.295 0.000 
   outer loop
     vertex 133.7 292.8 507.5 
     vertex 138.3 307.6 507.5 
     vertex 138.3 307.6 367.5 
   endloop 
 endfacet
 facet normal -0.980 0.198 0.000 
   outer loop
     vertex 130.6 277.6 507.5 
     vertex 133.7 292.8 507.5 
     vertex 133.7 292.8 367.5 
   endloop 
 endfacet
 facet normal -0.995 0.100 0.000 
   outer loop
     vertex 129.1 262.2 507.5 
     vertex 130.6 277.6 507.5 
     vertex 130.6 277.6 367.5 
   endloop 
 endfacet
 facet normal -1.000 -0.000 0.000 
   outer loop
     vertex 129.1 246.6 507.5 
     vertex 129.1 262.2 507.5 
     vertex 129.1 262.2 367.5 
   endloop 
 endfacet
 facet normal -0.995 -0.100 0.000 
   outer loop
     vertex 130.6 231.2 507.5 
     vertex 129.1 246.6 507.5 
     vertex 129.1 246.6 367.5 
   endloop 
 endfacet
 facet normal -0.980 -0.198 0.000 
   outer loop
     vertex 133.7 216.0 507.5 
     vertex 130.6 231.2 507.5 
     vertex 130.6 231.2 367.5 
   endloop 
 endfacet
 facet normal -0.956 -0.295 0.000 
   outer loop
     vertex 138.3 201.2 507.5 
     vertex 133.7 216.0 507.5 
     vertex 133.7 216.0 367.5 
   endloop 
 endfacet
 facet normal -0.921 -0.388 0.000 
   outer loop
     vertex 144.3 186.9 507.5 
     vertex 138.3 201.2 507.5 
     vertex 138.3 201.2 367.5 
   endloop 
 endfacet
 facet normal -0.878 -0.478 0.000 
   outer loop
     vertex 151.7 173.3 507.5 
     vertex 144.3 186.9 507.5 
     vertex 144.3 186.9 367.5 
   endloop 
 endfacet
 facet normal -0.826 -0.563 0.000 
   outer loop
     vertex 160.4 160.5 507.5 
     vertex 151.7 173.3 507.5 
     vertex 151.7 173.3 367.5 
   endloop 
 endfacet
 facet normal -0.766 -0.643 0.000 
   outer loop
     vertex 170.4 148.6 507.5 
     vertex 160.4 160.5 507.5 
     vertex 160.4 160.5 367.5 
   endloop 
 endfacet
 facet normal -0.698 -0.716 0.000 
   outer loop
     vertex 181.5 137.8 507.5 
     vertex 170.4 148.6 507.5 
     vertex 170.4 148.6 367.5 
   endloop 
 endfacet
 facet normal -0.623 -0.782 0.000 
   outer loop
     vertex 193.6 128.1 507.5 
     vertex 181.5 137.8 507.5 
     vertex 181.5 137.8 367.5 
   endloop 
 endfacet
 facet normal -0.543 -0.840 0.000 
   outer loop
     vertex 206.7 119.7 507.5 
     vertex 193.6 128.1 507.5 
     vertex 193.6 128.1 367.5 
   endloop 
 endfacet
 facet normal -0.456 -0.890 0.000 
   outer loop
     vertex 220.4 112.7 507.5 
     vertex 206.7 119.7 507.5 
     vertex 206.7 119.7 367.5 
   endloop 
 endfacet
 facet normal -0.365 -0.931 0.000 
   outer loop
     vertex 234.9 107.0 507.5 
     vertex 220.4 112.7 507.5 
     vertex 220.4 112.7 367.5 
   endloop 
 endfacet
 facet normal -0.271 -0.963 0.000 
   outer loop
     vertex 249.8 102.8 507.5 
     vertex 234.9 107.0 507.5 
     vertex 234.9 107.0 367.5 
   endloop 
 endfacet
 facet normal -0.174 -0.985 0.000 
   outer loop
     vertex 265.1 100.1 507.5 
     vertex 249.8 102.8 507.5 
     vertex 249.8 102.8 367.5 
   endloop 
 endfacet
 facet normal -0.075 -0.997 0.000 
   outer loop
     vertex 280.5 98.9 507.5 
     vertex 265.1 100.1 507.5 
     vertex 265.1 100.1 367.5 
   endloop 
 endfacet
 facet normal 0.025 -1.000 0.000 
   outer loop
     vertex 296.0 99.3 507.5 
     vertex 280.5 98.9 507.5 
     vertex 280.5 98.9 367.5 
   endloop 
 endfacet
 facet normal 0.124 -0.992 0.000 
   outer loop
     vertex 311.4 101.3 507.5 
     vertex 296.0 99.3 507.5 
     vertex 296.0 99.3 367.5 
   endloop 
 endfacet
 facet normal 0.223 -0.975 0.000 
   outer loop
     vertex 326.5 104.7 507.5 
     vertex 311.4 101.3 507.5 
     vertex 311.4 101.3 367.5 
   endloop 
 endfacet
 facet normal 0.318 -0.948 0.000 
   outer loop
     vertex 341.2 109.6 507.5 
     vertex 326.5 104.7 507.5 
     vertex 326.5 104.7 367.5 
   endloop 
 endfacet
 facet normal 0.411 -0.912 0.000 
   outer loop
     vertex 355.3 116.0 507.5 
     vertex 341.2 109.6 507.5 
     vertex 341.2 109.6 367.5 
   endloop 
 endfacet
 facet normal 0.500 -0.866 0.000 
   outer loop
     vertex 368.8 123.8 507.5 
     vertex 355.3 116.0 507.5 
     vertex 355.3 116.0 367.5 
   endloop 
 endfacet
 facet normal 0.584 -0.812 0.000 
   outer loop
     vertex 381.4 132.8 507.5 
     vertex 368.8 123.8 507.5 
     vertex 368.8 123.8 367.5 
   endloop 
 endfacet
 facet normal 0.662 -0.750 0.000 
   outer loop
     vertex 393.0 143.1 507.5 
     vertex 381.4 132.8 507.5 
     vertex 381.4 132.8 367.5 
   endloop 
 endfacet
 facet normal 0.733 -0.680 0.000 
   outer loop
     vertex 403.5 154.4 507.5 
     vertex 393.0 143.1 507.5 
     vertex 393.0 143.1 367.5 
   endloop 
 endfacet
 facet normal 0.797 -0.604 0.000 
   outer loop
     vertex 412.9 166.8 507.5 
     vertex 403.5 154.4 507.5 
     vertex 403.5 154.4 367.5 
   endloop 
 endfacet
 facet normal 0.853 -0.521 0.000 
   outer loop
     vertex 421.0 180.0 507.5 
     vertex 412.9 166.8 507.5 
     vertex 412.9 166.8 367.5 
   endloop 
 endfacet
 facet normal 0.901 -0.434 0.000 
   outer loop
     vertex 427.7 194.0 507.5 
     vertex 421.0 180.0 507.5 
     vertex 421.0 180.0 367.5 
   endloop 
 endfacet
 facet normal 0.940 -0.342 0.000 
   outer loop
     vertex 433.0 208.6 507.5 
     vertex 427.7 194.0 507.5 
     vertex 427.7 194.0 367.5 
   endloop 
 endfacet
 facet normal 0.969 -0.247 0.000 
   outer loop
     vertex 436.8 223.6 507.5 
     vertex 433.0 208.6 507.5 
     vertex 433.0 208.6 367.5 
   endloop 
 endfacet
 facet normal 0.989 -0.149 0.000 
   outer loop
     vertex 439.1 238.9 507.5 
     vertex 436.8 223.6 507.5 
     vertex 436.8 223.6 367.5 
   endloop 
 endfacet
 facet normal 0.999 -0.050 0.000 
   outer loop
     vertex 439.9 254.4 507.5 
     vertex 439.1 238.9 507.5 
     vertex 439.1 238.9 367.5 
   endloop 
 endfacet
 facet normal 0.999 0.050 0.000 
   outer loop
     vertex 439.1 269.9 507.5 
     vertex 439.9 254.4 367.5 
     vertex 439.1 269.9 367.5 
   endloop 
 endfacet
 facet normal 0.989 0.149 0.000 
   outer loop
     vertex 436.8 285.2 507.5 
     vertex 439.1 269.9 367.5 
     vertex 436.8 285.2 367.5 
   endloop 
 endfacet
 facet normal 0.969 0.247 0.000 
   outer loop
     vertex 433.0 300.2 507.5 
     vertex 436.8 285.2 367.5 
     vertex 433.0 300.2 367.5 
   endloop 
 endfacet
 facet normal 0.940 0.342 0.000 
   outer loop
     vertex 427.7 314.8 507.5 
     vertex 433.0 300.2 367.5 
     vertex 427.7 314.8 367.5 
   endloop 
 endfacet
 facet normal 0.901 0.434 0.000 
   outer loop
     vertex 421.0 328.8 507.5 
     vertex 427.7 314.8 367.5 
     vertex 421.0 328.8 367.5 
   endloop 
 endfacet
 facet normal 0.853 0.521 0.000 
   outer loop
     vertex 412.9 342.0 507.5 
     vertex 421.0 328.8 367.5 
     vertex 412.9 342.0 367.5 
   endloop 
 endfacet
 facet normal 0.797 0.604 0.000 
   outer loop
     vertex 403.5 354.4 507.5 
     vertex 412.9 342.0 367.5 
     vertex 403.5 354.4 367.5 
   endloop 
 endfacet
 facet normal 0.733 0.680 0.000 
   outer loop
     vertex 393.0 365.7 507.5 
     vertex 403.5 354.4 367.5 
     vertex 393.0 365.7 367.5 
   endloop 
 endfacet
 facet normal 0.662 0.750 0.000 
   outer loop
     vertex 381.4 376.0 507.5 
     vertex 393.0 365.7 367.5 
     vertex 381.4 376.0 367.5 
   endloop 
 endfacet
 facet normal 0.584 0.812 0.000 
   outer loop
     vertex 368.8 385.0 507.5 
     vertex 381.4 376.0 367.5 
     vertex 368.8 385.0 367.5 
   endloop 
 endfacet
 facet normal 0.500 0.866 0.000 
   outer loop
     vertex 355.3 392.8 507.5 
     vertex 368.8 385.0 367.5 
     vertex 355.3 392.8 367.5 
   endloop 
 endfacet
 facet normal 0.411 0.912 0.000 
   outer loop
     vertex 341.2 399.2 507.5 
     vertex 355.3 392.8 367.5 
     vertex 341.2 399.2 367.5 
   endloop 
 endfacet
 facet normal 0.318 0.948 0.000 
   outer loop
     vertex 326.5 404.1 507.5 
     vertex 341.2 399.2 367.5 
     vertex 326.5 404.1 367.5 
   endloop 
 endfacet
 facet normal 0.223 0.975 0.000 
   outer loop
     vertex 311.4 407.5 507.5 
     vertex 326.5 404.1 367.5 
     vertex 311.4 407.5 367.5 
   endloop 
 endfacet
 facet normal 0.124 0.992 0.000 
   outer loop
     vertex 296.0 409.5 507.5 
     vertex 311.4 407.5 367.5 
     vertex 296.0 409.5 367.5 
   endloop 
 endfacet
 facet normal 0.025 1.000 0.000 
   outer loop
     vertex 280.5 409.9 507.5 
     vertex 296.0 409.5 367.5 
     vertex 280.5 409.9 367.5 
   endloop 
 endfacet
 facet normal -0.075 0.997 0.000 
   outer loop
     vertex 265.1 408.7 507.5 
     vertex 280.5 409.9 367.5 
     vertex 265.1 408.7 367.5 
   endloop 
 endfacet
 facet normal -0.174 0.985 0.000 
   outer loop
     vertex 249.8 406.0 507.5 
     vertex 265.1 408.7 367.5 
     vertex 249.8 406.0 367.5 
   endloop 
 endfacet
 facet normal -0.271 0.963 0.000 
   outer loop
     vertex 234.9 401.8 507.5 
     vertex 249.8 406.0 367.5 
     vertex 234.9 401.8 367.5 
   endloop 
 endfacet
 facet normal -0.365 0.931 0.000 
   outer loop
     vertex 220.4 396.1 507.5 
     vertex 234.9 401.8 367.5 
     vertex 220.4 396.1 367.5 
   endloop 
 endfacet
 facet normal -0.456 0.890 0.000 
   outer loop
     vertex 206.6 389.1 507.5 
     vertex 220.4 396.1 367.5 
     vertex 206.6 389.1 367.5 
   endloop 
 endfacet
 facet normal -0.543 0.840 0.000 
   outer loop
     vertex 193.6 380.7 507.5 
     vertex 206.6 389.1 367.5 
     vertex 193.6 380.7 367.5 
   endloop 
 endfacet
 facet normal -0.623 0.782 0.000 
   outer loop
     vertex 181.5 371.0 507.5 
     vertex 193.6 380.7 367.5 
     vertex 181.5 371.0 367.5 
   endloop 
 endfacet
 facet normal -0.698 0.716 0.000 
   outer loop
     vertex 170.4 360.2 507.5 
     vertex 181.5 371.0 367.5 
     vertex 170.4 360.2 367.5 
   endloop 
 endfacet
 facet normal -0.766 0.643 0.000 
   outer loop
     vertex 160.4 348.3 507.5 
     vertex 170.4 360.2 367.5 
     vertex 160.4 348.3 367.5 
   endloop 
 endfacet
 facet normal -0.826 0.563 0.000 
   outer loop
     vertex 151.7 335.5 507.5 
     vertex 160.4 348.3 367.5 
     vertex 151.7 335.5 367.5 
   endloop 
 endfacet
 facet normal -0.878 0.478 0.000 
   outer loop
     vertex 144.3 321.9 507.5 
     vertex 151.7 335.5 367.5 
     vertex 144.3 321.9 367.5 
   endloop 
 endfacet
 facet normal -0.921 0.388 0.000 
   outer loop
     vertex 138.3 307.6 507.5 
     vertex 144.3 321.9 367.5 
     vertex 138.3 307.6 367.5 
   endloop 
 endfacet
 facet normal -0.956 0.295 0.000 
   outer loop
     vertex 133.7 292.8 507.5 
     vertex 138.3 307.6 367.5 
     vertex 133.7 292.8 367.5 
   endloop 
 endfacet
 facet normal -0.980 0.198 0.000 
   outer loop
     vertex 130.6 277.6 507.5 
     vertex 133.7 292.8 367.5 
     vertex 130.6 277.6 367.5 
   endloop 
 endfacet
 facet normal -0.995 0.100 0.000 
   outer loop
     vertex 129.1 262.2 507.5 
     vertex 130.6 277.6 367.5 
     vertex 129.1 262.2 367.5 
   endloop 
 endfacet
 facet normal -1.000 -0.000 0.000 
   outer loop
     vertex 129.1 246.6 507.5 
     vertex 129.1 262.2 367.5 
     vertex 129.1 246.6 367.5 
   endloop 
 endfacet
 facet normal -0.995 -0.100 0.000 
   outer loop
     vertex 130.6 231.2 507.5 
     vertex 129.1 246.6 367.5 
     vertex 130.6 231.2 367.5 
   endloop 
 endfacet
 facet normal -0.980 -0.198 0.000 
   outer loop
     vertex 133.7 216.0 507.5 
     vertex 130.6 231.2 367.5 
     vertex 133.7 216.0 367.5 
   endloop 
 endfacet
 facet normal -0.956 -0.295 0.000 
   outer loop
     vertex 138.3 201.2 507.5 
     vertex 133.7 216.0 367.5 
     vertex 138.3 201.2 367.5 
   endloop 
 endfacet
 facet normal -0.921 -0.388 0.000 
   outer loop
     vertex 144.3 186.9 507.5 
     vertex 138.3 201.2 367.5 
     vertex 144.3 186.9 367.5 
   endloop 
 endfacet
 facet normal -0.878 -0.478 0.000 
   outer loop
     vertex 151.7 173.3 507.5 
     vertex 144.3 186.9 367.5 
     vertex 151.7 173.3 367.5 
   endloop 
 endfacet
 facet normal -0.826 -0.563 0.000 
   outer loop
     vertex 160.4 160.5 507.5 
     vertex 151.7 173.3 367.5 
     vertex 160.4 160.5 367.5 
   endloop 
 endfacet
 facet normal -0.766 -0.643 0.000 
   outer loop
     vertex 170.4 148.6 507.5 
     vertex 160.4 160.5 367.5 
     vertex 170.4 148.6 367.5 
   endloop 
 endfacet
 facet normal -0.698 -0.716 0.000 
   outer loop
     vertex 181.5 137.8 507.5 
     vertex 170.4 148.6 367.5 
     vertex 181.5 137.8 367.5 
   endloop 
 endfacet
 facet normal -0.623 -0.782 0.000 
   outer loop
     vertex 193.6 128.1 507.5 
     vertex 181.5 137.8 367.5 
     vertex 193.6 128.1 367.5 
   endloop 
 endfacet
 facet normal -0.543 -0.840 0.000 
   outer loop
     vertex 206.7 119.7 507.5 
     vertex 193.6 128.1 367.5 
     vertex 206.7 119.7 367.5 
   endloop 
 endfacet
 facet normal -0.456 -0.890 0.000 
   outer loop
     vertex 220.4 112.7 507.5 
     vertex 206.7 119.7 367.5 
     vertex 220.4 112.7 367.5 
   endloop 
 endfacet
 facet normal -0.365 -0.931 0.000 
   outer loop
     vertex 234.9 107.0 507.5 
     vertex 220.4 112.7 367.5 
     vertex 234.9 107.0 367.5 
   endloop 
 endfacet
 facet normal -0.271 -0.963 0.000 
   outer loop
     vertex 249.8 102.8 507.5 
     vertex 234.9 107.0 367.5 
     vertex 249.8 102.8 367.5 
   endloop 
 endfacet
 facet normal -0.174 -0.985 0.000 
   outer loop
     vertex 265.1 100.1 507.5 
     vertex 249.8 102.8 367.5 
     vertex 265.1 100.1 367.5 
   endloop 
 endfacet
 facet normal -0.075 -0.997 0.000 
   outer loop
     vertex 280.5 98.9 507.5 
     vertex 265.1 100.1 367.5 
     vertex 280.5 98.9 367.5 
   endloop 
 endfacet
 facet normal 0.025 -1.000 0.000 
   outer loop
     vertex 296.0 99.3 507.5 
     vertex 280.5 98.9 367.5 
     vertex 296.0 99.3 367.5 
   endloop 
 endfacet
 facet normal 0.124 -0.992 0.000 
   outer loop
     vertex 311.4 101.3 507.5 
     vertex 296.0 99.3 367.5 
     vertex 311.4 101.3 367.5 
   endloop 
 endfacet
 facet normal 0.223 -0.975 0.000 
   outer loop
     vertex 326.5 104.7 507.5 
     vertex 311.4 101.3 367.5 
     vertex 326.5 104.7 367.5 
   endloop 
 endfacet
 facet normal 0.318 -0.948 0.000 
   outer loop
     vertex 341.2 109.6 507.5 
     vertex 326.5 104.7 367.5 
     vertex 341.2 109.6 367.5 
   endloop 
 endfacet
 facet normal 0.411 -0.912 0.000 
   outer loop
     vertex 355.3 116.0 507.5 
     vertex 341.2 109.6 367.5 
     vertex 355.3 116.0 367.5 
   endloop 
 endfacet
 facet normal 0.500 -0.866 0.000 
   outer loop
     vertex 368.8 123.8 507.5 
     vertex 355.3 116.0 367.5 
     vertex 368.8 123.8 367.5 
   endloop 
 endfacet
 facet normal 0.584 -0.812 0.000 
   outer loop
     vertex 381.4 132.8 507.5 
     vertex 368.8 123.8 367.5 
     vertex 381.4 132.8 367.5 
   endloop 
 endfacet
 facet normal 0.662 -0.750 0.000 
   outer loop
     vertex 393.0 143.1 507.5 
     vertex 381.4 132.8 367.5 
     vertex 393.0 143.1 367.5 
   endloop 
 endfacet
 facet normal 0.733 -0.680 0.000 
   outer loop
     vertex 403.5 154.4 507.5 
     vertex 393.0 143.1 367.5 
     vertex 403.5 154.4 367.5 
   endloop 
 endfacet
 facet normal 0.797 -0.604 0.000 
   outer loop
     vertex 412.9 166.8 507.5 
     vertex 403.5 154.4 367.5 
     vertex 412.9 166.8 367.5 
   endloop 
 endfacet
 facet normal 0.853 -0.521 0.000 
   outer loop
     vertex 421.0 180.0 507.5 
     vertex 412.9 166.8 367.5 
     vertex 421.0 180.0 367.5 
   endloop 
 endfacet
 facet normal 0.901 -0.434 0.000 
   outer loop
     vertex 427.7 194.0 507.5 
     vertex 421.0 180.0 367.5 
     vertex 427.7 194.0 367.5 
   endloop 
 endfacet
 facet normal 0.940 -0.342 0.000 
   outer loop
     vertex 433.0 208.6 507.5 
     vertex 427.7 194.0 367.5 
     vertex 433.0 208.6 367.5 
   endloop 
 endfacet
 facet normal 0.969 -0.247 0.000 
   outer loop
     vertex 436.8 223.6 507.5 
     vertex 433.0 208.6 367.5 
     vertex 436.8 223.6 367.5 
   endloop 
 endfacet
 facet normal 0.989 -0.149 0.000 
   outer loop
     vertex 439.1 238.9 507.5 
     vertex 436.8 223.6 367.5 
     vertex 439.1 238.9 367.5 
   endloop 
 endfacet
 facet normal 0.999 -0.050 0.000 
   outer loop
     vertex 439.9 254.4 507.5 
     vertex 439.1 238.9 367.5 
     vertex 439.9 254.4 367.5 
   endloop 
 endfacet
 facet normal -0.999 -0.050 0.000 
   outer loop
     vertex 389.4 264.9 507.5 
     vertex 389.9 254.4 367.5 
     vertex 389.9 254.4 507.5 
   endloop 
 endfacet
 facet normal -0.989 -0.149 0.000 
   outer loop
     vertex 387.8 275.3 507.5 
     vertex 389.4 264.9 367.5 
     vertex 389.4 264.9 507.5 
   endloop 
 endfacet
 facet normal -0.969 -0.247 0.000 
   outer loop
     vertex 385.2 285.5 507.5 
     vertex 387.8 275.3 367.5 
     vertex 387.8 275.3 507.5 
   endloop 
 endfacet
 facet normal -0.940 -0.342 0.000 
   outer loop
     vertex 381.6 295.4 507.5 
     vertex 385.2 285.5 367.5 
     vertex 385.2 285.5 507.5 
   endloop 
 endfacet
 facet normal -0.901 -0.434 0.000 
   outer loop
     vertex 377.1 304.9 507.5 
     vertex 381.6 295.4 367.5 
     vertex 381.6 295.4 507.5 
   endloop 
 endfacet
 facet normal -0.853 -0.521 0.000 
   outer loop
     vertex 371.6 313.8 507.5 
     vertex 377.1 304.9 367.5 
     vertex 377.1 304.9 507.5 
   endloop 
 endfacet
 facet normal -0.797 -0.604 0.000 
   outer loop
     vertex 365.2 322.2 507.5 
     vertex 371.6 313.8 367.5 
     vertex 371.6 313.8 507.5 
   endloop 
 endfacet
 facet normal -0.733 -0.680 0.000 
   outer loop
     vertex 358.1 329.9 507.5 
     vertex 365.2 322.2 367.5 
     vertex 365.2 322.2 507.5 
   endloop 
 endfacet
 facet normal -0.662 -0.750 0.000 
   outer loop
     vertex 350.2 336.9 507.5 
     vertex 358.1 329.9 367.5 
     vertex 358.1 329.9 507.5 
   endloop 
 endfacet
 facet normal -0.584 -0.812 0.000 
   outer loop
     vertex 341.6 343.0 507.5 
     vertex 350.2 336.9 367.5 
     vertex 350.2 336.9 507.5 
   endloop 
 endfacet
 facet normal -0.500 -0.866 0.000 
   outer loop
     vertex 332.5 348.3 507.5 
     vertex 341.6 343.0 367.5 
     vertex 341.6 343.0 507.5 
   endloop 
 endfacet
 facet normal -0.411 -0.912 0.000 
   outer loop
     vertex 322.9 352.6 507.5 
     vertex 332.5 348.3 367.5 
     vertex 332.5 348.3 507.5 
   endloop 
 endfacet
 facet normal -0.318 -0.948 0.000 
   outer loop
     vertex 313.0 356.0 507.5 
     vertex 322.9 352.6 367.5 
     vertex 322.9 352.6 507.5 
   endloop 
 endfacet
 facet normal -0.223 -0.975 0.000 
   outer loop
     vertex 302.7 358.3 507.5 
     vertex 313.0 356.0 367.5 
     vertex 313.0 356.0 507.5 
   endloop 
 endfacet
 facet normal -0.124 -0.992 0.000 
   outer loop
     vertex 292.3 359.6 507.5 
     vertex 302.7 358.3 367.5 
     vertex 302.7 358.3 507.5 
   endloop 
 endfacet
 facet normal -0.025 -1.000 0.000 
   outer loop
     vertex 281.8 359.9 507.5 
     vertex 292.3 359.6 367.5 
     vertex 292.3 359.6 507.5 
   endloop 
 endfacet
 facet normal 0.075 -0.997 0.000 
   outer loop
     vertex 271.3 359.1 507.5 
     vertex 281.8 359.9 367.5 
     vertex 281.8 359.9 507.5 
   endloop 
 endfacet
 facet normal 0.174 -0.985 0.000 
   outer loop
     vertex 260.9 357.3 507.5 
     vertex 271.3 359.1 367.5 
     vertex 271.3 359.1 507.5 
   endloop 
 endfacet
 facet normal 0.271 -0.963 0.000 
   outer loop
     vertex 250.8 354.4 507.5 
     vertex 260.9 357.3 367.5 
     vertex 260.9 357.3 507.5 
   endloop 
 endfacet
 facet normal 0.365 -0.931 0.000 
   outer loop
     vertex 241.0 350.6 507.5 
     vertex 250.8 354.4 367.5 
     vertex 250.8 354.4 507.5 
   endloop 
 endfacet
 facet normal 0.456 -0.890 0.000 
   outer loop
     vertex 231.6 345.8 507.5 
     vertex 241.0 350.6 367.5 
     vertex 241.0 350.6 507.5 
   endloop 
 endfacet
 facet normal 0.543 -0.840 0.000 
   outer loop
     vertex 222.8 340.1 507.5 
     vertex 231.6 345.8 367.5 
     vertex 231.6 345.8 507.5 
   endloop 
 endfacet
 facet normal 0.623 -0.782 0.000 
   outer loop
     vertex 214.6 333.5 507.5 
     vertex 222.8 340.1 367.5 
     vertex 222.8 340.1 507.5 
   endloop 
 endfacet
 facet normal 0.698 -0.716 0.000 
   outer loop
     vertex 207.1 326.2 507.5 
     vertex 214.6 333.5 367.5 
     vertex 214.6 333.5 507.5 
   endloop 
 endfacet
 facet normal 0.766 -0.643 0.000 
   outer loop
     vertex 200.3 318.1 507.5 
     vertex 207.1 326.2 367.5 
     vertex 207.1 326.2 507.5 
   endloop 
 endfacet
 facet normal 0.826 -0.563 0.000 
   outer loop
     vertex 194.4 309.4 507.5 
     vertex 200.3 318.1 367.5 
     vertex 200.3 318.1 507.5 
   endloop 
 endfacet
 facet normal 0.878 -0.478 0.000 
   outer loop
     vertex 189.3 300.2 507.5 
     vertex 194.4 309.4 367.5 
     vertex 194.4 309.4 507.5 
   endloop 
 endfacet
 facet normal 0.921 -0.388 0.000 
   outer loop
     vertex 185.3 290.5 507.5 
     vertex 189.3 300.2 367.5 
     vertex 189.3 300.2 507.5 
   endloop 
 endfacet
 facet normal 0.956 -0.295 0.000 
   outer loop
     vertex 182.2 280.4 507.5 
     vertex 185.3 290.5 367.5 
     vertex 185.3 290.5 507.5 
   endloop 
 endfacet
 facet normal 0.980 -0.198 0.000 
   outer loop
     vertex 180.1 270.1 507.5 
     vertex 182.2 280.4 367.5 
     vertex 182.2 280.4 507.5 
   endloop 
 endfacet
 facet normal 0.995 -0.100 0.000 
   outer loop
     vertex 179.0 259.7 507.5 
     vertex 180.1 270.1 367.5 
     vertex 180.1 270.1 507.5 
   endloop 
 endfacet
 facet normal 1.000 0.000 0.000 
   outer loop
     vertex 179.0 249.1 507.5 
     vertex 179.0 259.7 367.5 
     vertex 179.0 259.7 507.5 
   endloop 
 endfacet
 facet normal 0.995 0.100 0.000 
   outer loop
     vertex 180.1 238.7 507.5 
     vertex 179.0 249.1 367.5 
     vertex 179.0 249.1 507.5 
   endloop 
 endfacet
 facet normal 0.980 0.198 0.000 
   outer loop
     vertex 182.2 228.4 507.5 
     vertex 180.1 238.7 367.5 
     vertex 180.1 238.7 507.5 
   endloop 
 endfacet
 facet normal 0.956 0.295 0.000 
   outer loop
     vertex 185.3 218.3 507.5 
     vertex 182.2 228.4 367.5 
     vertex 182.2 228.4 507.5 
   endloop 
 endfacet
 facet normal 0.921 0.388 0.000 
   outer loop
     vertex 189.3 208.6 507.5 
     vertex 185.3 218.3 367.5 
     vertex 185.3 218.3 507.5 
   endloop 
 endfacet
 facet normal 0.878 0.478 0.000 
   outer loop
     vertex 194.4 199.4 507.5 
     vertex 189.3 208.6 367.5 
     vertex 189.3 208.6 507.5 
   endloop 
 endfacet
 facet normal 0.826 0.563 0.000 
   outer loop
     vertex 200.3 190.7 507.5 
     vertex 194.4 199.4 367.5 
     vertex 194.4 199.4 507.5 
   endloop 
 endfacet
 facet normal 0.766 0.643 0.000 
   outer loop
     vertex 207.1 182.6 507.5 
     vertex 200.3 190.7 367.5 
     vertex 200.3 190.7 507.5 
   endloop 
 endfacet
 facet normal 0.698 0.716 0.000 
   outer loop
     vertex 214.6 175.3 507.5 
     vertex 207.1 182.6 367.5 
     vertex 207.1 182.6 507.5 
   endloop 
 endfacet
 facet normal 0.623 0.782 0.000 
   outer loop
     vertex 222.8 168.7 507.5 
     vertex 214.6 175.3 367.5 
     vertex 214.6 175.3 507.5 
   endloop 
 endfacet
 facet normal 0.543 0.840 0.000 
   outer loop
     vertex 231.7 163.0 507.5 
     vertex 222.8 168.7 367.5 
     vertex 222.8 168.7 507.5 
   endloop 
 endfacet
 facet normal 0.456 0.890 0.000 
   outer loop
     vertex 241.0 158.2 507.5 
     vertex 231.7 163.0 367.5 
     vertex 231.7 163.0 507.5 
   endloop 
 endfacet
 facet normal 0.365 0.931 0.000 
   outer loop
     vertex 250.8 154.4 507.5 
     vertex 241.0 158.2 367.5 
     vertex 241.0 158.2 507.5 
   endloop 
 endfacet
 facet normal 0.271 0.963 0.000 
   outer loop
     vertex 260.9 151.5 507.5 
     vertex 250.8 154.4 367.5 
     vertex 250.8 154.4 507.5 
   endloop 
 endfacet
 facet normal 0.174 0.985 0.000 
   outer loop
     vertex 271.3 149.7 507.5 
     vertex 260.9 151.5 367.5 
     vertex 260.9 151.5 507.5 
   endloop 
 endfacet
 facet normal 0.075 0.997 0.000 
   outer loop
     vertex 281.8 148.9 507.5 
     vertex 271.3 149.7 367.5 
     vertex 271.3 149.7 507.5 
   endloop 
 endfacet
 facet normal -0.025 1.000 0.000 
   outer loop
     vertex 292.3 149.2 507.5 
     vertex 281.8 148.9 367.5 
     vertex 281.8 148.9 507.5 
   endloop 
 endfacet
 facet normal -0.124 0.992 0.000 
   outer loop
     vertex 302.7 150.5 507.5 
     vertex 292.3 149.2 367.5 
     vertex 292.3 149.2 507.5 
   endloop 
 endfacet
 facet normal -0.223 0.975 0.000 
   outer loop
     vertex 313.0 152.8 507.5 
     vertex 302.7 150.5 367.5 
     vertex 302.7 150.5 507.5 
   endloop 
 endfacet
 facet normal -0.318 0.948 0.000 
   outer loop
     vertex 322.9 156.2 507.5 
     vertex 313.0 152.8 367.5 
     vertex 313.0 152.8 507.5 
   endloop 
 endfacet
 facet normal -0.411 0.912 0.000 
   outer loop
     vertex 332.5 160.5 507.5 
     vertex 322.9 156.2 367.5 
     vertex 322.9 156.2 507.5 
   endloop 
 endfacet
 facet normal -0.500 0.866 0.000 
   outer loop
     vertex 341.6 165.8 507.5 
     vertex 332.5 160.5 367.5 
     vertex 332.5 160.5 507.5 
   endloop 
 endfacet
 facet normal -0.584 0.812 0.000 
   outer loop
     vertex 350.2 171.9 507.5 
     vertex 341.6 165.8 367.5 
     vertex 341.6 165.8 507.5 
   endloop 
 endfacet
 facet normal -0.662 0.750 0.000 
   outer loop
     vertex 358.1 178.9 507.5 
     vertex 350.2 171.9 367.5 
     vertex 350.2 171.9 507.5 
   endloop 
 endfacet
 facet normal -0.733 0.680 0.000 
   outer loop
     vertex 365.2 186.6 507.5 
     vertex 358.1 178.9 367.5 
     vertex 358.1 178.9 507.5 
   endloop 
 endfacet
 facet normal -0.797 0.604 0.000 
   outer loop
     vertex 371.6 195.0 507.5 
     vertex 365.2 186.6 367.5 
     vertex 365.2 186.6 507.5 
   endloop 
 endfacet
 facet normal -0.853 0.521 0.000 
   outer loop
     vertex 377.1 203.9 507.5 
     vertex 371.6 195.0 367.5 
     vertex 371.6 195.0 507.5 
   endloop 
 endfacet
 facet normal -0.901 0.434 0.000 
   outer loop
     vertex 381.6 213.4 507.5 
     vertex 377.1 203.9 367.5 
     vertex 377.1 203.9 507.5 
   endloop 
 endfacet
 facet normal -0.940 0.342 0.000 
   outer loop
     vertex 385.2 223.3 507.5 
     vertex 381.6 213.4 367.5 
     vertex 381.6 213.4 507.5 
   endloop 
 endfacet
 facet normal -0.969 0.247 0.000 
   outer loop
     vertex 387.8 233.5 507.5 
     vertex 385.2 223.3 367.5 
     vertex 385.2 223.3 507.5 
   endloop 
 endfacet
 facet normal -0.989 0.149 0.000 
   outer loop
     vertex 389.4 243.9 507.5 
     vertex 387.8 233.5 367.5 
     vertex 387.8 233.5 507.5 
   endloop 
 endfacet
 facet normal -0.999 0.050 0.000 
   outer loop
     vertex 389.9 254.4 507.5 
     vertex 389.4 243.9 367.5 
     vertex 389.4 243.9 507.5 
   endloop 
 endfacet
 facet normal -0.999 -0.050 0.000 
   outer loop
     vertex 389.4 264.9 507.5 
     vertex 389.4 264.9 367.5 
     vertex 389.9 254.4 367.5 
   endloop 
 endfacet
 facet normal -0.989 -0.149 0.000 
   outer loop
     vertex 387.8 275.3 507.5 
     vertex 387.8 275.3 367.5 
     vertex 389.4 264.9 367.5 
   endloop 
 endfacet
 facet normal -0.969 -0.247 0.000 
   outer loop
     vertex 385.2 285.5 507.5 
     vertex 385.2 285.5 367.5 
     vertex 387.8 275.3 367.5 
   endloop 
 endfacet
 facet normal -0.940 -0.342 0.000 
   outer loop
     vertex 381.6 295.4 507.5 
     vertex 381.6 295.4 367.5 
     vertex 385.2 285.5 367.5 
   endloop 
 endfacet
 facet normal -0.901 -0.434 0.000 
   outer loop
     vertex 377.1 304.9 507.5 
     vertex 377.1 304.9 367.5 
     vertex 381.6 295.4 367.5 
   endloop 
 endfacet
 facet normal -0.853 -0.521 0.000 
   outer loop
     vertex 371.6 313.8 507.5 
     vertex 371.6 313.8 367.5 
     vertex 377.1 304.9 367.5 
   endloop 
 endfacet
 facet normal -0.797 -0.604 0.000 
   outer loop
     vertex 365.2 322.2 507.5 
     vertex 365.2 322.2 367.5 
     vertex 371.6 313.8 367.5 
   endloop 
 endfacet
 facet normal -0.733 -0.680 0.000 
   outer loop
     vertex 358.1 329.9 507.5 
     vertex 358.1 329.9 367.5 
     vertex 365.2 322.2 367.5 
   endloop 
 endfacet
 facet normal -0.662 -0.750 0.000 
   outer loop
     vertex 350.2 336.9 507.5 
     vertex 350.2 336.9 367.5 
     vertex 358.1 329.9 367.5 
   endloop 
 endfacet
 facet normal -0.584 -0.812 0.000 
   outer loop
     vertex 341.6 343.0 507.5 
     vertex 341.6 343.0 367.5 
     vertex 350.2 336.9 367.5 
   endloop 
 endfacet
 facet normal -0.500 -0.866 0.000 
   outer loop
     vertex 332.5 348.3 507.5 
     vertex 332.5 348.3 367.5 
     vertex 341.6 343.0 367.5 
   endloop 
 endfacet
 facet normal -0.411 -0.912 0.000 
   outer loop
     vertex 322.9 352.6 507.5 
     vertex 322.9 352.6 367.5 
     vertex 332.5 348.3 367.5 
   endloop 
 endfacet
 facet normal -0.318 -0.948 0.000 
   outer loop
     vertex 313.0 356.0 507.5 
     vertex 313.0 356.0 367.5 
     vertex 322.9 352.6 367.5 
   endloop 
 endfacet
 facet normal -0.223 -0.975 0.000 
   outer loop
     vertex 302.7 358.3 507.5 
     vertex 302.7 358.3 367.5 
     vertex 313.0 356.0 367.5 
   endloop 
 endfacet
 facet normal -0.124 -0.992 0.000 
   outer loop
     vertex 292.3 359.6 507.5 
     vertex 292.3 359.6 367.5 
     vertex 302.7 358.3 367.5 
   endloop 
 endfacet
 facet normal -0.025 -1.000 0.000 
   outer loop
     vertex 281.8 359.9 507.5 
     vertex 281.8 359.9 367.5 
     vertex 292.3 359.6 367.5 
   endloop 
 endfacet
 facet normal 0.075 -0.997 0.000 
   outer loop
     vertex 271.3 359.1 507.5 
     vertex 271.3 359.1 367.5 
     vertex 281.8 359.9 367.5 
   endloop 
 endfacet
 facet normal 0.174 -0.985 0.000 
   outer loop
     vertex 260.9 357.3 507.5 
     vertex 260.9 357.3 367.5 
     vertex 271.3 359.1 367.5 
   endloop 
 endfacet
 facet normal 0.271 -0.963 0.000 
   outer loop
     vertex 250.8 354.4 507.5 
     vertex 250.8 354.4 367.5 
     vertex 260.9 357.3 367.5 
   endloop 
 endfacet
 facet normal 0.365 -0.931 0.000 
   outer loop
     vertex 241.0 350.6 507.5 
     vertex 241.0 350.6 367.5 
     vertex 250.8 354.4 367.5 
   endloop 
 endfacet
 facet normal 0.456 -0.890 0.000 
   outer loop
     vertex 231.6 345.8 507.5 
     vertex 231.6 345.8 367.5 
     vertex 241.0 350.6 367.5 
   endloop 
 endfacet
 facet normal 0.543 -0.840 0.000 
   outer loop
     vertex 222.8 340.1 507.5 
     vertex 222.8 340.1 367.5 
     vertex 231.6 345.8 367.5 
   endloop 
 endfacet
 facet normal 0.623 -0.782 0.000 
   outer loop
     vertex 214.6 333.5 507.5 
     vertex 214.6 333.5 367.5 
     vertex 222.8 340.1 367.5 
   endloop 
 endfacet
 facet normal 0.698 -0.716 0.000 
   outer loop
     vertex 207.1 326.2 507.5 
     vertex 207.1 326.2 367.5 
     vertex 214.6 333.5 367.5 
   endloop 
 endfacet
 facet normal 0.766 -0.643 0.000 
   outer loop
     vertex 200.3 318.1 507.5 
     vertex 200.3 318.1 367.5 
     vertex 207.1 326.2 367.5 
   endloop 
 endfacet
 facet normal 0.826 -0.563 0.000 
   outer loop
     vertex 194.4 309.4 507.5 
     vertex 194.4 309.4 367.5 
     vertex 200.3 318.1 367.5 
   endloop 
 endfacet
 facet normal 0.878 -0.478 0.000 
   outer loop
     vertex 189.3 300.2 507.5 
     vertex 189.3 300.2 367.5 
     vertex 194.4 309.4 367.5 
   endloop 
 endfacet
 facet normal 0.921 -0.388 0.000 
   outer loop
     vertex 185.3 290.5 507.5 
     vertex 185.3 290.5 367.5 
     vertex 189.3 300.2 367.5 
   endloop 
 endfacet
 facet normal 0.956 -0.295 0.000 
   outer loop
     vertex 182.2 280.4 507.5 
     vertex 182.2 280.4 367.5 
     vertex 185.3 290.5 367.5 
   endloop 
 endfacet
 facet normal 0.980 -0.198 0.000 
   outer loop
     vertex 180.1 270.1 507.5 
     vertex 180.1 270.1 367.5 
     vertex 182.2 280.4 367.5 
   endloop 
 endfacet
 facet normal 0.995 -0.100 0.000 
   outer loop
     vertex 179.0 259.7 507.5 
     vertex 179.0 259.7 367.5 
     vertex 180.1 270.1 367.5 
   endloop 
 endfacet
 facet normal 1.000 0.000 0.000 
   outer loop
     vertex 179.0 249.1 507.5 
     vertex 179.0 249.1 367.5 
     vertex 179.0 259.7 367.5 
   endloop 
 endfacet
 facet normal 0.995 0.100 0.000 
   outer loop
     vertex 180.1 238.7 507.5 
     vertex 180.1 238.7 367.5 
     vertex 179.0 249.1 367.5 
   endloop 
 endfacet
 facet normal 0.980 0.198 0.000 
   outer loop
     vertex 182.2 228.4 507.5 
     vertex 182.2 228.4 367.5 
     vertex 180.1 238.7 367.5 
   endloop 
 endfacet
 facet normal 0.956 0.295 0.000 
   outer loop
     vertex 185.3 218.3 507.5 
     vertex 185.3 218.3 367.5 
     vertex 182.2 228.4 367.5 
   endloop 
 endfacet
 facet normal 0.921 0.388 0.000 
   outer loop
     vertex 189.3 208.6 507.5 
     vertex 189.3 208.6 367.5 
     vertex 185.3 218.3 367.5 
   endloop 
 endfacet
 facet normal 0.878 0.478 0.000 
   outer loop
     vertex 194.4 199.4 507.5 
     vertex 194.4 199.4 367.5 
     vertex 189.3 208.6 367.5 
   endloop 
 endfacet
 facet normal 0.826 0.563 0.000 
   outer loop
     vertex 200.3 190.7 507.5 
     vertex 200.3 190.7 367.5 
     vertex 194.4 199.4 367.5 
   endloop 
 endfacet
 facet normal 0.766 0.643 0.000 
   outer loop
     vertex 207.1 182.6 507.5 
     vertex 207.1 182.6 367.5 
     vertex 200.3 190.7 367.5 
   endloop 
 endfacet
 facet normal 0.698 0.716 0.000 
   outer loop
     vertex 214.6 175.3 507.5 
     vertex 214.6 175.3 367.5 
     vertex 207.1 182.6 367.5 
   endloop 
 endfacet
 facet normal 0.623 0.782 0.000 
   outer loop
     vertex 222.8 168.7 507.5 
     vertex 222.8 168.7 367.5 
     vertex 214.6 175.3 367.5 
   endloop 
 endfacet
 facet normal 0.543 0.840 0.000 
   outer loop
     vertex 231.7 163.0 507.5 
     vertex 231.7 163.0 367.5 
     vertex 222.8 168.7 367.5 
   endloop 
 endfacet
 facet normal 0.456 0.890 0.000 
   outer loop
     vertex 241.0 158.2 507.5 
     vertex 241.0 158.2 367.5 
     vertex 231.7 163.0 367.5 
   endloop 
 endfacet
 facet normal 0.365 0.931 0.000 
   outer loop
     vertex 250.8 154.4 507.5 
     vertex 250.8 154.4 367.5 
     vertex 241.0 158.2 367.5 
   endloop 
 endfacet
 facet normal 0.271 0.963 0.000 
   outer loop
     vertex 260.9 151.5 507.5 
     vertex 260.9 151.5 367.5 
     vertex 250.8 154.4 367.5 
   endloop 
 endfacet
 facet normal 0.174 0.985 0.000 
   outer loop
     vertex 271.3 149.7 507.5 
     vertex 271.3 149.7 367.5 
     vertex 260.9 151.5 367.5 
   endloop 
 endfacet
 facet normal 0.075 0.997 0.000 
   outer loop
     vertex 281.8 148.9 507.5 
     vertex 281.8 148.9 367.5 
     vertex 271.3 149.7 367.5 
   endloop 
 endfacet
 facet normal -0.025 1.000 0.000 
   outer loop
     vertex 292.3 149.2 507.5 
     vertex 292.3 149.2 367.5 
     vertex 281.8 148.9 367.5 
   endloop 
 endfacet
 facet normal -0.124 0.992 0.000 
   outer loop
     vertex 302.7 150.5 507.5 
     vertex 302.7 150.5 367.5 
     vertex 292.3 149.2 367.5 
   endloop 
 endfacet
 facet normal -0.223 0.975 0.000 
   outer loop
     vertex 313.0 152.8 507.5 
     vertex 313.0 152.8 367.5 
     vertex 302.7 150.5 367.5 
   endloop 
 endfacet
 facet normal -0.318 0.948 0.000 
   outer loop
     vertex 322.9 156.2 507.5 
     vertex 322.9 156.2 367.5 
     vertex 313.0 152.8 367.5 
   endloop 
 endfacet
 facet normal -0.411 0.912 0.000 
   outer loop
     vertex 332.5 160.5 507.5 
     vertex 332.5 160.5 367.5 
     vertex 322.9 156.2 367.5 
   endloop 
 endfacet
 facet normal -0.500 0.866 0.000 
   outer loop
     vertex 341.6 165.8 507.5 
     vertex 341.6 165.8 367.5 
     vertex 332.5 160.5 367.5 
   endloop 
 endfacet
 facet normal -0.584 0.812 0.000 
   outer loop
     vertex 350.2 171.9 507.5 
     vertex 350.2 171.9 367.5 
     vertex 341.6 165.8 367.5 
   endloop 
 endfacet
 facet normal -0.662 0.750 0.000 
   outer loop
     vertex 358.1 178.9 507.5 
     vertex 358.1 178.9 367.5 
     vertex 350.2 171.9 367.5 
   endloop 
 endfacet
 facet normal -0.733 0.680 0.000 
   outer loop
     vertex 365.2 186.6 507.5 
     vertex 365.2 186.6 367.5 
     vertex 358.1 178.9 367.5 
   endloop 
 endfacet
 facet normal -0.797 0.604 0.000 
   outer loop
     vertex 371.6 195.0 507.5 
     vertex 371.6 195.0 367.5 
     vertex 365.2 186.6 367.5 
   endloop 
 endfacet
 facet normal -0.853 0.521 0.000 
   outer loop
     vertex 377.1 203.9 507.5 
     vertex 377.1 203.9 367.5 
     vertex 371.6 195.0 367.5 
   endloop 
 endfacet
 facet normal -0.901 0.434 0.000 
   outer loop
     vertex 381.6 213.4 507.5 
     vertex 381.6 213.4 367.5 
     vertex 377.1 203.9 367.5 
   endloop 
 endfacet
 facet normal -0.940 0.342 0.000 
   outer loop
     vertex 385.2 223.3 507.5 
     vertex 385.2 223.3 367.5 
     vertex 381.6 213.4 367.5 
   endloop 
 endfacet
 facet normal -0.969 0.247 0.000 
   outer loop
     vertex 387.8 233.5 507.5 
     vertex 387.8 233.5 367.5 
     vertex 385.2 223.3 367.5 
   endloop 
 endfacet
 facet normal -0.989 0.149 0.000 
   outer loop
     vertex 389.4 243.9 507.5 
     vertex 389.4 243.9 367.5 
     vertex 387.8 233.5 367.5 
   endloop 
 endfacet
 facet normal -0.999 0.050 0.000 
   outer loop
     vertex 389.9 254.4 507.5 
     vertex 389.9 254.4 367.5 
     vertex 389.4 243.9 367.5 
   endloop 
 endfacet
 endsolid SOLIDTYPE