solid Cshape
   facet normal -1.000000e+000 -5.740258e-018 0.000000e+000
      outer loop
         vertex 0.000000e+000 7.000000e+001 0.000000e+000
         vertex 4.018181e-016 0.000000e+000 0.000000e+000
         vertex 0.000000e+000 7.000000e+001 1.500000e+002
      endloop
   endfacet
   facet normal -1.000000e+000 -5.740258e-018 0.000000e+000
      outer loop
         vertex 0.000000e+000 7.000000e+001 1.500000e+002
         vertex 4.018181e-016 0.000000e+000 0.000000e+000
         vertex 4.018181e-016 0.000000e+000 1.500000e+002
      endloop
   endfacet
   facet normal 0.000000e+000 1.000000e+000 0.000000e+000
      outer loop
         vertex 2.000000e+001 7.000000e+001 0.000000e+000
         vertex 4.018181e-016 7.000000e+001 0.000000e+000
         vertex 2.000000e+001 7.000000e+001 1.500000e+002
      endloop
   endfacet
   facet normal 0.000000e+000 1.000000e+000 0.000000e+000
      outer loop
         vertex 2.000000e+001 7.000000e+001 1.500000e+002
         vertex 4.018181e-016 7.000000e+001 0.000000e+000
         vertex 4.018181e-016 7.000000e+001 1.500000e+002
      endloop
   endfacet
   facet normal 1.000000e+000 0.000000e+000 0.000000e+000
      outer loop
         vertex 2.000000e+001 3.000000e+001 0.000000e+000
         vertex 2.000000e+001 7.000000e+001 0.000000e+000
         vertex 2.000000e+001 3.000000e+001 1.500000e+002
      endloop
   endfacet
   facet normal 1.000000e+000 0.000000e+000 0.000000e+000
      outer loop
         vertex 2.000000e+001 3.000000e+001 1.500000e+002
         vertex 2.000000e+001 7.000000e+001 0.000000e+000
         vertex 2.000000e+001 7.000000e+001 1.500000e+002
      endloop
   endfacet
   facet normal -1.387779e-016 1.000000e+000 0.000000e+000
      outer loop
         vertex 7.000000e+001 3.000000e+001 0.000000e+000
         vertex 2.000000e+001 3.000000e+001 0.000000e+000
         vertex 7.000000e+001 3.000000e+001 1.500000e+002
      endloop
   endfacet
   facet normal -1.387779e-016 1.000000e+000 0.000000e+000
      outer loop
         vertex 7.000000e+001 3.000000e+001 1.500000e+002
         vertex 2.000000e+001 3.000000e+001 0.000000e+000
         vertex 2.000000e+001 3.000000e+001 1.500000e+002
      endloop
   endfacet
   facet normal -1.000000e+000 -1.982541e-016 0.000000e+000
      outer loop
         vertex 7.000000e+001 1.000000e+002 0.000000e+000
         vertex 7.000000e+001 3.000000e+001 0.000000e+000
         vertex 7.000000e+001 1.000000e+002 1.500000e+002
      endloop
   endfacet
   facet normal -1.000000e+000 -1.982541e-016 0.000000e+000
      outer loop
         vertex 7.000000e+001 1.000000e+002 1.500000e+002
         vertex 7.000000e+001 3.000000e+001 0.000000e+000
         vertex 7.000000e+001 3.000000e+001 1.500000e+002
      endloop
   endfacet
   facet normal 0.000000e+000 1.000000e+000 0.000000e+000
      outer loop
         vertex 1.000000e+002 1.000000e+002 0.000000e+000
         vertex 7.000000e+001 1.000000e+002 0.000000e+000
         vertex 1.000000e+002 1.000000e+002 1.500000e+002
      endloop
   endfacet
   facet normal 0.000000e+000 1.000000e+000 0.000000e+000
      outer loop
         vertex 1.000000e+002 1.000000e+002 1.500000e+002
         vertex 7.000000e+001 1.000000e+002 0.000000e+000
         vertex 7.000000e+001 1.000000e+002 1.500000e+002
      endloop
   endfacet
   facet normal 1.000000e+000 0.000000e+000 0.000000e+000
      outer loop
         vertex 1.000000e+002 0.000000e+000 0.000000e+000
         vertex 1.000000e+002 1.000000e+002 0.000000e+000
         vertex 1.000000e+002 0.000000e+000 1.500000e+002
      endloop
   endfacet
   facet normal 1.000000e+000 0.000000e+000 0.000000e+000
      outer loop
         vertex 1.000000e+002 0.000000e+000 1.500000e+002
         vertex 1.000000e+002 1.000000e+002 0.000000e+000
         vertex 1.000000e+002 1.000000e+002 1.500000e+002
      endloop
   endfacet
   facet normal 0.000000e+000 -1.000000e+000 0.000000e+000
      outer loop
         vertex 4.018181e-016 0.000000e+000 0.000000e+000
         vertex 1.000000e+002 0.000000e+000 0.000000e+000
         vertex 4.018181e-016 0.000000e+000 1.500000e+002
      endloop
   endfacet
   facet normal 0.000000e+000 -1.000000e+000 0.000000e+000
      outer loop
         vertex 4.018181e-016 0.000000e+000 1.500000e+002
         vertex 1.000000e+002 0.000000e+000 0.000000e+000
         vertex 1.000000e+002 0.000000e+000 1.500000e+002
      endloop
   endfacet
   facet normal 0.000000e+000 0.000000e+000 -1.000000e+000
      outer loop
         vertex 7.000000e+001 1.000000e+002 0.000000e+000
         vertex 1.000000e+002 1.000000e+002 0.000000e+000
         vertex 7.000000e+001 3.000000e+001 0.000000e+000
      endloop
   endfacet
   facet normal 0.000000e+000 0.000000e+000 -1.000000e+000
      outer loop
         vertex 7.000000e+001 3.000000e+001 0.000000e+000
         vertex 1.000000e+002 1.000000e+002 0.000000e+000
         vertex 1.000000e+002 0.000000e+000 0.000000e+000
      endloop
   endfacet
   facet normal 0.000000e+000 0.000000e+000 -1.000000e+000
      outer loop
         vertex 7.000000e+001 3.000000e+001 0.000000e+000
         vertex 1.000000e+002 0.000000e+000 0.000000e+000
         vertex 2.000000e+001 3.000000e+001 0.000000e+000
      endloop
   endfacet
   facet normal 0.000000e+000 0.000000e+000 -1.000000e+000
      outer loop
         vertex 2.000000e+001 3.000000e+001 0.000000e+000
         vertex 1.000000e+002 0.000000e+000 0.000000e+000
         vertex 4.018181e-016 0.000000e+000 0.000000e+000
      endloop
   endfacet
   facet normal 0.000000e+000 0.000000e+000 -1.000000e+000
      outer loop
         vertex 2.000000e+001 3.000000e+001 0.000000e+000
         vertex 4.018181e-016 0.000000e+000 0.000000e+000
         vertex 2.000000e+001 7.000000e+001 0.000000e+000
      endloop
   endfacet
   facet normal 0.000000e+000 0.000000e+000 -1.000000e+000
      outer loop
         vertex 2.000000e+001 7.000000e+001 0.000000e+000
         vertex 4.018181e-016 0.000000e+000 0.000000e+000
         vertex 0.000000e+000 7.000000e+001 0.000000e+000
      endloop
   endfacet
   facet normal 0.000000e+000 0.000000e+000 1.000000e+000
      outer loop
         vertex 2.000000e+001 7.000000e+001 1.500000e+002
         vertex 0.000000e+000 7.000000e+001 1.500000e+002
         vertex 2.000000e+001 3.000000e+001 1.500000e+002
      endloop
   endfacet
   facet normal 0.000000e+000 0.000000e+000 1.000000e+000
      outer loop
         vertex 2.000000e+001 3.000000e+001 1.500000e+002
         vertex 0.000000e+000 7.000000e+001 1.500000e+002
         vertex 4.018181e-016 0.000000e+000 1.500000e+002
      endloop
   endfacet
   facet normal 0.000000e+000 0.000000e+000 1.000000e+000
      outer loop
         vertex 2.000000e+001 3.000000e+001 1.500000e+002
         vertex 4.018181e-016 0.000000e+000 1.500000e+002
         vertex 7.000000e+001 3.000000e+001 1.500000e+002
      endloop
   endfacet
   facet normal 0.000000e+000 0.000000e+000 1.000000e+000
      outer loop
         vertex 7.000000e+001 3.000000e+001 1.500000e+002
         vertex 4.018181e-016 0.000000e+000 1.500000e+002
         vertex 1.000000e+002 0.000000e+000 1.500000e+002
      endloop
   endfacet
   facet normal 0.000000e+000 0.000000e+000 1.000000e+000
      outer loop
         vertex 7.000000e+001 3.000000e+001 1.500000e+002
         vertex 1.000000e+002 0.000000e+000 1.500000e+002
         vertex 7.000000e+001 1.000000e+002 1.500000e+002
      endloop
   endfacet
   facet normal 0.000000e+000 0.000000e+000 1.000000e+000
      outer loop
         vertex 7.000000e+001 1.000000e+002 1.500000e+002
         vertex 1.000000e+002 0.000000e+000 1.500000e+002
         vertex 1.000000e+002 1.000000e+002 1.500000e+002
      endloop
   endfacet
endsolid