solid Tshaped
   facet normal -1.000000e+000 0.000000e+000 0.000000e+000
      outer loop
         vertex 0.000000e+000 1.200000e+002 0.000000e+000
         vertex 0.000000e+000 9.999999e+001 0.000000e+000
         vertex 0.000000e+000 1.200000e+002 1.800000e+002
      endloop
   endfacet
   facet normal -1.000000e+000 0.000000e+000 0.000000e+000
      outer loop
         vertex 0.000000e+000 1.200000e+002 1.800000e+002
         vertex 0.000000e+000 9.999999e+001 0.000000e+000
         vertex 0.000000e+000 9.999999e+001 1.800000e+002
      endloop
   endfacet
   facet normal 0.000000e+000 1.000000e+000 0.000000e+000
      outer loop
         vertex 8.000000e+001 1.200000e+002 0.000000e+000
         vertex 0.000000e+000 1.200000e+002 0.000000e+000
         vertex 8.000000e+001 1.200000e+002 1.800000e+002
      endloop
   endfacet
   facet normal 0.000000e+000 1.000000e+000 0.000000e+000
      outer loop
         vertex 8.000000e+001 1.200000e+002 1.800000e+002
         vertex 0.000000e+000 1.200000e+002 0.000000e+000
         vertex 0.000000e+000 1.200000e+002 1.800000e+002
      endloop
   endfacet
   facet normal 1.000000e+000 0.000000e+000 0.000000e+000
      outer loop
         vertex 8.000000e+001 9.999999e+001 0.000000e+000
         vertex 8.000000e+001 1.200000e+002 0.000000e+000
         vertex 8.000000e+001 9.999999e+001 1.800000e+002
      endloop
   endfacet
   facet normal 1.000000e+000 0.000000e+000 0.000000e+000
      outer loop
         vertex 8.000000e+001 9.999999e+001 1.800000e+002
         vertex 8.000000e+001 1.200000e+002 0.000000e+000
         vertex 8.000000e+001 1.200000e+002 1.800000e+002
      endloop
   endfacet
   facet normal 1.577021e-016 -1.000000e+000 0.000000e+000
      outer loop
         vertex 5.800000e+001 9.999999e+001 0.000000e+000
         vertex 8.000000e+001 9.999999e+001 0.000000e+000
         vertex 5.800000e+001 9.999999e+001 1.800000e+002
      endloop
   endfacet
   facet normal 1.577021e-016 -1.000000e+000 0.000000e+000
      outer loop
         vertex 5.800000e+001 9.999999e+001 1.800000e+002
         vertex 8.000000e+001 9.999999e+001 0.000000e+000
         vertex 8.000000e+001 9.999999e+001 1.800000e+002
      endloop
   endfacet
   facet normal 1.000000e+000 6.938894e-017 0.000000e+000
      outer loop
         vertex 5.800000e+001 0.000000e+000 0.000000e+000
         vertex 5.800000e+001 9.999999e+001 0.000000e+000
         vertex 5.800000e+001 0.000000e+000 1.800000e+002
      endloop
   endfacet
   facet normal 1.000000e+000 6.938894e-017 0.000000e+000
      outer loop
         vertex 5.800000e+001 0.000000e+000 1.800000e+002
         vertex 5.800000e+001 9.999999e+001 0.000000e+000
         vertex 5.800000e+001 9.999999e+001 1.800000e+002
      endloop
   endfacet
   facet normal 3.854941e-016 -1.000000e+000 0.000000e+000
      outer loop
         vertex 2.200000e+001 0.000000e+000 0.000000e+000
         vertex 5.800000e+001 0.000000e+000 0.000000e+000
         vertex 2.200000e+001 0.000000e+000 1.800000e+002
      endloop
   endfacet
   facet normal 3.854941e-016 -1.000000e+000 0.000000e+000
      outer loop
         vertex 2.200000e+001 0.000000e+000 1.800000e+002
         vertex 5.800000e+001 0.000000e+000 0.000000e+000
         vertex 5.800000e+001 0.000000e+000 1.800000e+002
      endloop
   endfacet
   facet normal -1.000000e+000 0.000000e+000 0.000000e+000
      outer loop
         vertex 2.200000e+001 9.999999e+001 0.000000e+000
         vertex 2.200000e+001 0.000000e+000 0.000000e+000
         vertex 2.200000e+001 9.999999e+001 1.800000e+002
      endloop
   endfacet
   facet normal -1.000000e+000 0.000000e+000 0.000000e+000
      outer loop
         vertex 2.200000e+001 9.999999e+001 1.800000e+002
         vertex 2.200000e+001 0.000000e+000 0.000000e+000
         vertex 2.200000e+001 0.000000e+000 1.800000e+002
      endloop
   endfacet
   facet normal 0.000000e+000 -1.000000e+000 0.000000e+000
      outer loop
         vertex 6.938894e-015 9.999999e+001 0.000000e+000
         vertex 2.200000e+001 9.999999e+001 0.000000e+000
         vertex 6.938894e-015 9.999999e+001 1.800000e+002
      endloop
   endfacet
   facet normal 0.000000e+000 -1.000000e+000 0.000000e+000
      outer loop
         vertex 6.938894e-015 9.999999e+001 1.800000e+002
         vertex 2.200000e+001 9.999999e+001 0.000000e+000
         vertex 2.200000e+001 9.999999e+001 1.800000e+002
      endloop
   endfacet
   facet normal 0.000000e+000 0.000000e+000 -1.000000e+000
      outer loop
         vertex 8.000000e+001 1.200000e+002 0.000000e+000
         vertex 8.000000e+001 9.999999e+001 0.000000e+000
         vertex 0.000000e+000 1.200000e+002 0.000000e+000
      endloop
   endfacet
   facet normal 0.000000e+000 0.000000e+000 -1.000000e+000
      outer loop
         vertex 0.000000e+000 1.200000e+002 0.000000e+000
         vertex 8.000000e+001 9.999999e+001 0.000000e+000
         vertex 5.800000e+001 9.999999e+001 0.000000e+000
      endloop
   endfacet
   facet normal 0.000000e+000 0.000000e+000 -1.000000e+000
      outer loop
         vertex 0.000000e+000 9.999999e+001 0.000000e+000
         vertex 0.000000e+000 1.200000e+002 0.000000e+000
         vertex 2.200000e+001 9.999999e+001 0.000000e+000
      endloop
   endfacet
   facet normal 0.000000e+000 0.000000e+000 -1.000000e+000
      outer loop
         vertex 2.200000e+001 9.999999e+001 0.000000e+000
         vertex 0.000000e+000 1.200000e+002 0.000000e+000
         vertex 5.800000e+001 9.999999e+001 0.000000e+000
      endloop
   endfacet
   facet normal 0.000000e+000 0.000000e+000 -1.000000e+000
      outer loop
         vertex 2.200000e+001 9.999999e+001 0.000000e+000
         vertex 5.800000e+001 9.999999e+001 0.000000e+000
         vertex 2.200000e+001 0.000000e+000 0.000000e+000
      endloop
   endfacet
   facet normal 0.000000e+000 0.000000e+000 -1.000000e+000
      outer loop
         vertex 2.200000e+001 0.000000e+000 0.000000e+000
         vertex 5.800000e+001 9.999999e+001 0.000000e+000
         vertex 5.800000e+001 0.000000e+000 0.000000e+000
      endloop
   endfacet
   facet normal 0.000000e+000 0.000000e+000 1.000000e+000
      outer loop
         vertex 0.000000e+000 1.200000e+002 1.800000e+002
         vertex 0.000000e+000 9.999999e+001 1.800000e+002
         vertex 8.000000e+001 1.200000e+002 1.800000e+002
      endloop
   endfacet
   facet normal 0.000000e+000 0.000000e+000 1.000000e+000
      outer loop
         vertex 8.000000e+001 1.200000e+002 1.800000e+002
         vertex 0.000000e+000 9.999999e+001 1.800000e+002
         vertex 2.200000e+001 9.999999e+001 1.800000e+002
      endloop
   endfacet
   facet normal 0.000000e+000 0.000000e+000 1.000000e+000
      outer loop
         vertex 8.000000e+001 9.999999e+001 1.800000e+002
         vertex 8.000000e+001 1.200000e+002 1.800000e+002
         vertex 5.800000e+001 9.999999e+001 1.800000e+002
      endloop
   endfacet
   facet normal 0.000000e+000 0.000000e+000 1.000000e+000
      outer loop
         vertex 5.800000e+001 9.999999e+001 1.800000e+002
         vertex 8.000000e+001 1.200000e+002 1.800000e+002
         vertex 2.200000e+001 9.999999e+001 1.800000e+002
      endloop
   endfacet
   facet normal 0.000000e+000 0.000000e+000 1.000000e+000
      outer loop
         vertex 5.800000e+001 9.999999e+001 1.800000e+002
         vertex 2.200000e+001 9.999999e+001 1.800000e+002
         vertex 5.800000e+001 0.000000e+000 1.800000e+002
      endloop
   endfacet
   facet normal 0.000000e+000 0.000000e+000 1.000000e+000
      outer loop
         vertex 5.800000e+001 0.000000e+000 1.800000e+002
         vertex 2.200000e+001 9.999999e+001 1.800000e+002
         vertex 2.200000e+001 0.000000e+000 1.800000e+002
      endloop
   endfacet
endsolid