solid C:\Temp\NOELParts\E2part.STL created by CtrlView V2.70
facet normal 1 0 0
outer loop
vertex 20 40 25
vertex 20 30 25
vertex 20 40 0
endloop
endfacet
facet normal 1 0 0
outer loop
vertex 20 40 0
vertex 20 30 25
vertex 20 30 0
endloop
endfacet
facet normal 0 -1 0
outer loop
vertex 40 40 25
vertex 20 40 25
vertex 40 40 0
endloop
endfacet
facet normal 0 -1 0
outer loop
vertex 40 40 0
vertex 20 40 25
vertex 20 40 0
endloop
endfacet
facet normal 1 0 0
outer loop
vertex 40 10 0
vertex 40 10 25
vertex 40 0 0
endloop
endfacet
facet normal 1 0 0
outer loop
vertex 40 0 0
vertex 40 10 25
vertex 40 0 25
endloop
endfacet
facet normal 0 1 0
outer loop
vertex 20 10 25
vertex 40 10 25
vertex 20 10 0
endloop
endfacet
facet normal 0 1 0
outer loop
vertex 20 10 0
vertex 40 10 25
vertex 40 10 0
endloop
endfacet
facet normal 1 0 0
outer loop
vertex 20 20 25
vertex 20 10 25
vertex 20 20 0
endloop
endfacet
facet normal 1 0 0
outer loop
vertex 20 20 0
vertex 20 10 25
vertex 20 10 0
endloop
endfacet
facet normal 0 -1 0
outer loop
vertex 40 20 25
vertex 20 20 25
vertex 40 20 0
endloop
endfacet
facet normal 0 -1 0
outer loop
vertex 40 20 0
vertex 20 20 25
vertex 20 20 0
endloop
endfacet
facet normal 1 0 0
outer loop
vertex 40 30 0
vertex 40 30 25
vertex 40 20 0
endloop
endfacet
facet normal 1 0 0
outer loop
vertex 40 20 0
vertex 40 30 25
vertex 40 20 25
endloop
endfacet
facet normal 0 1 0
outer loop
vertex 20 30 25
vertex 40 30 25
vertex 20 30 0
endloop
endfacet
facet normal 0 1 0
outer loop
vertex 20 30 0
vertex 40 30 25
vertex 40 30 0
endloop
endfacet
facet normal 1 0 0
outer loop
vertex 40 50 0
vertex 40 50 25
vertex 40 40 0
endloop
endfacet
facet normal 1 0 0
outer loop
vertex 40 40 0
vertex 40 50 25
vertex 40 40 25
endloop
endfacet
facet normal 0 0 1
outer loop
vertex 40 0 25
vertex 40 10 25
vertex 10 0 25
endloop
endfacet
facet normal 0 0 1
outer loop
vertex 10 0 25
vertex 40 10 25
vertex 20 10 25
endloop
endfacet
facet normal 0 0 1
outer loop
vertex 10 0 25
vertex 20 10 25
vertex 10 50 25
endloop
endfacet
facet normal 0 0 1
outer loop
vertex 10 50 25
vertex 20 10 25
vertex 20 20 25
endloop
endfacet
facet normal 0 0 1
outer loop
vertex 40 40 25
vertex 40 50 25
vertex 20 40 25
endloop
endfacet
facet normal 0 0 1
outer loop
vertex 20 40 25
vertex 40 50 25
vertex 10 50 25
endloop
endfacet
facet normal 0 0 1
outer loop
vertex 20 40 25
vertex 10 50 25
vertex 20 30 25
endloop
endfacet
facet normal 0 0 1
outer loop
vertex 20 30 25
vertex 10 50 25
vertex 20 20 25
endloop
endfacet
facet normal 0 0 1
outer loop
vertex 20 30 25
vertex 20 20 25
vertex 40 30 25
endloop
endfacet
facet normal 0 0 1
outer loop
vertex 40 30 25
vertex 20 20 25
vertex 40 20 25
endloop
endfacet
facet normal 1 0 0
outer loop
vertex 10 50 25
vertex 10 50 35
vertex 10 0 25
endloop
endfacet
facet normal 1 0 0
outer loop
vertex 10 0 25
vertex 10 50 35
vertex 10 0 35
endloop
endfacet
facet normal 0 -1 0
outer loop
vertex 10 0 35
vertex 0 0 35
vertex 10 0 25
endloop
endfacet
facet normal 0 -1 0
outer loop
vertex 10 0 25
vertex 0 0 35
vertex 0 0 0
endloop
endfacet
facet normal 0 -1 0
outer loop
vertex 10 0 25
vertex 0 0 0
vertex 40 0 25
endloop
endfacet
facet normal 0 -1 0
outer loop
vertex 40 0 25
vertex 0 0 0
vertex 40 0 0
endloop
endfacet
facet normal 0 0 -1
outer loop
vertex 40 50 0
vertex 40 40 0
vertex 0 50 0
endloop
endfacet
facet normal 0 0 -1
outer loop
vertex 0 50 0
vertex 40 40 0
vertex 20 40 0
endloop
endfacet
facet normal 0 0 -1
outer loop
vertex 0 50 0
vertex 20 40 0
vertex 20 30 0
endloop
endfacet
facet normal 0 0 -1
outer loop
vertex 40 10 0
vertex 40 0 0
vertex 20 10 0
endloop
endfacet
facet normal 0 0 -1
outer loop
vertex 20 10 0
vertex 40 0 0
vertex 0 0 0
endloop
endfacet
facet normal 0 0 -1
outer loop
vertex 20 10 0
vertex 0 0 0
vertex 20 20 0
endloop
endfacet
facet normal 0 0 -1
outer loop
vertex 40 30 0
vertex 40 20 0
vertex 20 30 0
endloop
endfacet
facet normal 0 0 -1
outer loop
vertex 20 30 0
vertex 40 20 0
vertex 20 20 0
endloop
endfacet
facet normal 0 0 -1
outer loop
vertex 20 30 0
vertex 20 20 0
vertex 0 50 0
endloop
endfacet
facet normal 0 0 -1
outer loop
vertex 0 50 0
vertex 20 20 0
vertex 0 0 0
endloop
endfacet
facet normal 0 1 0
outer loop
vertex 40 50 25
vertex 40 50 0
vertex 10 50 25
endloop
endfacet
facet normal 0 1 0
outer loop
vertex 10 50 25
vertex 40 50 0
vertex 0 50 0
endloop
endfacet
facet normal 0 1 0
outer loop
vertex 10 50 25
vertex 0 50 0
vertex 10 50 35
endloop
endfacet
facet normal 0 1 0
outer loop
vertex 10 50 35
vertex 0 50 0
vertex 0 50 35
endloop
endfacet
facet normal 0 0 1
outer loop
vertex 10 0 35
vertex 10 50 35
vertex 0 0 35
endloop
endfacet
facet normal 0 0 1
outer loop
vertex 0 0 35
vertex 10 50 35
vertex 0 50 35
endloop
endfacet
facet normal -1 0 0
outer loop
vertex 0 0 0
vertex 0 0 35
vertex 0 50 0
endloop
endfacet
facet normal -1 0 0
outer loop
vertex 0 50 0
vertex 0 0 35
vertex 0 50 35
endloop
endfacet
endsolid
