solid ascii
  facet normal 1.116968e-016 1.106215e-016 1.000000e+000
    outer loop
      vertex   1.493961e+001 -5.000000e+000 -5.000000e+000
      vertex   5.000000e+000 -5.000000e+000 -5.000000e+000
      vertex   1.493961e+001 -1.503623e+001 -5.000000e+000
    endloop
  endfacet
  facet normal 0.000000e+000 0.000000e+000 1.000000e+000
    outer loop
      vertex   1.493961e+001 -1.503623e+001 -5.000000e+000
      vertex   5.000000e+000 -5.000000e+000 -5.000000e+000
      vertex   5.000000e+000 -1.500000e+001 -5.000000e+000
    endloop
  endfacet
  facet normal -0.000000e+000 -0.000000e+000 1.000000e+000
    outer loop
      vertex   2.775558e-015 -1.500000e+001 -5.000000e+000
      vertex   1.493961e+001 -1.503623e+001 -5.000000e+000
      vertex   5.000000e+000 -1.500000e+001 -5.000000e+000
    endloop
  endfacet
  facet normal 0.000000e+000 0.000000e+000 1.000000e+000
    outer loop
      vertex   2.775558e-015 -1.500000e+001 -5.000000e+000
      vertex   -1.006039e+001 -1.503623e+001 -5.000000e+000
      vertex   1.493961e+001 -1.503623e+001 -5.000000e+000
    endloop
  endfacet
  facet normal 0.000000e+000 0.000000e+000 1.000000e+000
    outer loop
      vertex   2.775558e-015 -1.500000e+001 -5.000000e+000
      vertex   -1.000000e+001 -5.000000e+000 -5.000000e+000
      vertex   -1.006039e+001 -1.503623e+001 -5.000000e+000
    endloop
  endfacet
  facet normal 0.000000e+000 0.000000e+000 1.000000e+000
    outer loop
      vertex   2.775558e-015 -1.500000e+001 -5.000000e+000
      vertex   5.781723e-016 -5.000000e+000 -5.000000e+000
      vertex   -1.000000e+001 -5.000000e+000 -5.000000e+000
    endloop
  endfacet
  facet normal 0.000000e+000 0.000000e+000 1.000000e+000
    outer loop
      vertex   -1.000000e+001 -5.000000e+000 -5.000000e+000
      vertex   -1.000000e+001 0.000000e+000 -5.000000e+000
      vertex   -1.006039e+001 -1.503623e+001 -5.000000e+000
    endloop
  endfacet
  facet normal 0.000000e+000 -0.000000e+000 1.000000e+000
    outer loop
      vertex   -1.006039e+001 -1.503623e+001 -5.000000e+000
      vertex   -1.000000e+001 0.000000e+000 -5.000000e+000
      vertex   -1.006039e+001 1.003623e+001 -5.000000e+000
    endloop
  endfacet
  facet normal -0.000000e+000 0.000000e+000 1.000000e+000
    outer loop
      vertex   -1.006039e+001 1.003623e+001 -5.000000e+000
      vertex   -1.000000e+001 0.000000e+000 -5.000000e+000
      vertex   -1.224606e-015 1.000000e+001 -5.000000e+000
    endloop
  endfacet
  facet normal 0.000000e+000 0.000000e+000 1.000000e+000
    outer loop
      vertex   5.000000e+000 1.000000e+001 -5.000000e+000
      vertex   -1.006039e+001 1.003623e+001 -5.000000e+000
      vertex   -1.224606e-015 1.000000e+001 -5.000000e+000
    endloop
  endfacet
  facet normal 0.000000e+000 -0.000000e+000 1.000000e+000
    outer loop
      vertex   5.000000e+000 1.000000e+001 -5.000000e+000
      vertex   1.493961e+001 1.003623e+001 -5.000000e+000
      vertex   -1.006039e+001 1.003623e+001 -5.000000e+000
    endloop
  endfacet
  facet normal 4.032177e-019 -1.106215e-016 1.000000e+000
    outer loop
      vertex   5.000000e+000 1.000000e+001 -5.000000e+000
      vertex   1.493961e+001 2.220446e-015 -5.000000e+000
      vertex   1.493961e+001 1.003623e+001 -5.000000e+000
    endloop
  endfacet
  facet normal 1.116968e-016 0.000000e+000 1.000000e+000
    outer loop
      vertex   5.000000e+000 1.000000e+001 -5.000000e+000
      vertex   5.000000e+000 0.000000e+000 -5.000000e+000
      vertex   1.493961e+001 2.220446e-015 -5.000000e+000
    endloop
  endfacet
  facet normal 0.000000e+000 -0.000000e+000 1.000000e+000
    outer loop
      vertex   -1.000000e+001 0.000000e+000 -5.000000e+000
      vertex   0.000000e+000 0.000000e+000 -5.000000e+000
      vertex   -1.224606e-015 1.000000e+001 -5.000000e+000
    endloop
  endfacet
  facet normal 1.000000e+000 0.000000e+000 -0.000000e+000
    outer loop
      vertex   1.493961e+001 2.220446e-015 -1.000000e+001
      vertex   1.493961e+001 1.003623e+001 -1.000000e+001
      vertex   1.493961e+001 2.220446e-015 -5.000000e+000
    endloop
  endfacet
  facet normal 1.000000e+000 -0.000000e+000 0.000000e+000
    outer loop
      vertex   1.493961e+001 2.220446e-015 -5.000000e+000
      vertex   1.493961e+001 1.003623e+001 -1.000000e+001
      vertex   1.493961e+001 1.003623e+001 -5.000000e+000
    endloop
  endfacet
  facet normal -8.881784e-017 -1.000000e+000 0.000000e+000
    outer loop
      vertex   1.493961e+001 -1.503623e+001 -5.000000e+000
      vertex   -1.006039e+001 -1.503623e+001 -5.000000e+000
      vertex   1.493961e+001 -1.503623e+001 -1.000000e+001
    endloop
  endfacet
  facet normal -8.881784e-017 -1.000000e+000 -0.000000e+000
    outer loop
      vertex   1.493961e+001 -1.503623e+001 -1.000000e+001
      vertex   -1.006039e+001 -1.503623e+001 -5.000000e+000
      vertex   -1.006039e+001 -1.503623e+001 -1.000000e+001
    endloop
  endfacet
  facet normal -1.000000e+000 1.771223e-016 0.000000e+000
    outer loop
      vertex   -1.006039e+001 -1.503623e+001 -5.000000e+000
      vertex   -1.006039e+001 1.003623e+001 -5.000000e+000
      vertex   -1.006039e+001 -1.503623e+001 -1.000000e+001
    endloop
  endfacet
  facet normal -1.000000e+000 1.771223e-016 0.000000e+000
    outer loop
      vertex   -1.006039e+001 -1.503623e+001 -1.000000e+001
      vertex   -1.006039e+001 1.003623e+001 -5.000000e+000
      vertex   -1.006039e+001 1.003623e+001 -1.000000e+001
    endloop
  endfacet
  facet normal 8.881784e-017 1.000000e+000 0.000000e+000
    outer loop
      vertex   -1.006039e+001 1.003623e+001 -5.000000e+000
      vertex   1.493961e+001 1.003623e+001 -5.000000e+000
      vertex   -1.006039e+001 1.003623e+001 -1.000000e+001
    endloop
  endfacet
  facet normal 8.881784e-017 1.000000e+000 0.000000e+000
    outer loop
      vertex   -1.006039e+001 1.003623e+001 -1.000000e+001
      vertex   1.493961e+001 1.003623e+001 -5.000000e+000
      vertex   1.493961e+001 1.003623e+001 -1.000000e+001
    endloop
  endfacet
  facet normal 1.000000e+000 0.000000e+000 0.000000e+000
    outer loop
      vertex   1.493961e+001 -5.000000e+000 -5.000000e+000
      vertex   1.493961e+001 -1.503623e+001 -5.000000e+000
      vertex   1.493961e+001 -5.000000e+000 -1.000000e+001
    endloop
  endfacet
  facet normal 1.000000e+000 0.000000e+000 0.000000e+000
    outer loop
      vertex   1.493961e+001 -5.000000e+000 -1.000000e+001
      vertex   1.493961e+001 -1.503623e+001 -5.000000e+000
      vertex   1.493961e+001 -1.503623e+001 -1.000000e+001
    endloop
  endfacet
  facet normal 0.000000e+000 -1.000000e+000 0.000000e+000
    outer loop
      vertex   -1.000000e+001 -5.000000e+000 -5.000000e+000
      vertex   5.781723e-016 -5.000000e+000 -5.000000e+000
      vertex   -1.000000e+001 -5.000000e+000 1.000000e+001
    endloop
  endfacet
  facet normal 0.000000e+000 -1.000000e+000 0.000000e+000
    outer loop
      vertex   -1.000000e+001 -5.000000e+000 1.000000e+001
      vertex   5.781723e-016 -5.000000e+000 -5.000000e+000
      vertex   5.781723e-016 -5.000000e+000 1.000000e+001
    endloop
  endfacet
  facet normal -1.000000e+000 -2.197385e-016 0.000000e+000
    outer loop
      vertex   5.781723e-016 -5.000000e+000 -5.000000e+000
      vertex   2.775558e-015 -1.500000e+001 -5.000000e+000
      vertex   5.781723e-016 -5.000000e+000 1.000000e+001
    endloop
  endfacet
  facet normal -1.000000e+000 -2.197385e-016 0.000000e+000
    outer loop
      vertex   5.781723e-016 -5.000000e+000 1.000000e+001
      vertex   2.775558e-015 -1.500000e+001 -5.000000e+000
      vertex   2.775558e-015 -1.500000e+001 1.000000e+001
    endloop
  endfacet
  facet normal 0.000000e+000 -1.000000e+000 0.000000e+000
    outer loop
      vertex   2.775558e-015 -1.500000e+001 -5.000000e+000
      vertex   5.000000e+000 -1.500000e+001 -5.000000e+000
      vertex   2.775558e-015 -1.500000e+001 1.000000e+001
    endloop
  endfacet
  facet normal 0.000000e+000 -1.000000e+000 0.000000e+000
    outer loop
      vertex   2.775558e-015 -1.500000e+001 1.000000e+001
      vertex   5.000000e+000 -1.500000e+001 -5.000000e+000
      vertex   5.000000e+000 -1.500000e+001 1.000000e+001
    endloop
  endfacet
  facet normal 1.000000e+000 0.000000e+000 -0.000000e+000
    outer loop
      vertex   5.000000e+000 -1.500000e+001 -5.000000e+000
      vertex   5.000000e+000 -5.000000e+000 -5.000000e+000
      vertex   5.000000e+000 -1.500000e+001 1.000000e+001
    endloop
  endfacet
  facet normal 1.000000e+000 -0.000000e+000 0.000000e+000
    outer loop
      vertex   5.000000e+000 -1.500000e+001 1.000000e+001
      vertex   5.000000e+000 -5.000000e+000 -5.000000e+000
      vertex   5.000000e+000 -5.000000e+000 1.000000e+001
    endloop
  endfacet
  facet normal 0.000000e+000 -1.000000e+000 0.000000e+000
    outer loop
      vertex   5.000000e+000 -5.000000e+000 -5.000000e+000
      vertex   1.493961e+001 -5.000000e+000 -5.000000e+000
      vertex   5.000000e+000 -5.000000e+000 1.000000e+001
    endloop
  endfacet
  facet normal 0.000000e+000 -1.000000e+000 0.000000e+000
    outer loop
      vertex   5.000000e+000 -5.000000e+000 1.000000e+001
      vertex   1.493961e+001 -5.000000e+000 -5.000000e+000
      vertex   1.500000e+001 -5.000000e+000 1.000000e+001
    endloop
  endfacet
  facet normal 0.000000e+000 -1.000000e+000 -0.000000e+000
    outer loop
      vertex   1.500000e+001 -5.000000e+000 1.000000e+001
      vertex   1.493961e+001 -5.000000e+000 -5.000000e+000
      vertex   1.500000e+001 -5.000000e+000 -1.000000e+001
    endloop
  endfacet
  facet normal -0.000000e+000 -1.000000e+000 -0.000000e+000
    outer loop
      vertex   1.500000e+001 -5.000000e+000 -1.000000e+001
      vertex   1.493961e+001 -5.000000e+000 -5.000000e+000
      vertex   1.493961e+001 -5.000000e+000 -1.000000e+001
    endloop
  endfacet
  facet normal 0.000000e+000 0.000000e+000 -1.000000e+000
    outer loop
      vertex   1.493961e+001 -1.503623e+001 -1.000000e+001
      vertex   -1.006039e+001 -1.503623e+001 -1.000000e+001
      vertex   1.493961e+001 -5.000000e+000 -1.000000e+001
    endloop
  endfacet
  facet normal -0.000000e+000 0.000000e+000 -1.000000e+000
    outer loop
      vertex   1.493961e+001 -5.000000e+000 -1.000000e+001
      vertex   -1.006039e+001 -1.503623e+001 -1.000000e+001
      vertex   1.493961e+001 2.220446e-015 -1.000000e+001
    endloop
  endfacet
  facet normal -1.838451e-014 0.000000e+000 -1.000000e+000
    outer loop
      vertex   1.500000e+001 1.836910e-015 -1.000000e+001
      vertex   1.493961e+001 -5.000000e+000 -1.000000e+001
      vertex   1.493961e+001 2.220446e-015 -1.000000e+001
    endloop
  endfacet
  facet normal -1.838451e-014 -0.000000e+000 -1.000000e+000
    outer loop
      vertex   1.500000e+001 1.836910e-015 -1.000000e+001
      vertex   1.500000e+001 -5.000000e+000 -1.000000e+001
      vertex   1.493961e+001 -5.000000e+000 -1.000000e+001
    endloop
  endfacet
  facet normal 0.000000e+000 0.000000e+000 -1.000000e+000
    outer loop
      vertex   -1.006039e+001 -1.503623e+001 -1.000000e+001
      vertex   -1.006039e+001 1.003623e+001 -1.000000e+001
      vertex   1.493961e+001 2.220446e-015 -1.000000e+001
    endloop
  endfacet
  facet normal 0.000000e+000 0.000000e+000 -1.000000e+000
    outer loop
      vertex   1.493961e+001 2.220446e-015 -1.000000e+001
      vertex   -1.006039e+001 1.003623e+001 -1.000000e+001
      vertex   1.493961e+001 1.003623e+001 -1.000000e+001
    endloop
  endfacet
  facet normal 0.000000e+000 1.000000e+000 -0.000000e+000
    outer loop
      vertex   5.000000e+000 1.000000e+001 -5.000000e+000
      vertex   -1.224606e-015 1.000000e+001 -5.000000e+000
      vertex   5.000000e+000 1.000000e+001 1.000000e+001
    endloop
  endfacet
  facet normal 0.000000e+000 1.000000e+000 -0.000000e+000
    outer loop
      vertex   5.000000e+000 1.000000e+001 1.000000e+001
      vertex   -1.224606e-015 1.000000e+001 -5.000000e+000
      vertex   -1.224606e-015 1.000000e+001 1.000000e+001
    endloop
  endfacet
  facet normal 1.000000e+000 0.000000e+000 -0.000000e+000
    outer loop
      vertex   5.000000e+000 0.000000e+000 -5.000000e+000
      vertex   5.000000e+000 1.000000e+001 -5.000000e+000
      vertex   5.000000e+000 0.000000e+000 1.000000e+001
    endloop
  endfacet
  facet normal 1.000000e+000 -0.000000e+000 0.000000e+000
    outer loop
      vertex   5.000000e+000 0.000000e+000 1.000000e+001
      vertex   5.000000e+000 1.000000e+001 -5.000000e+000
      vertex   5.000000e+000 1.000000e+001 1.000000e+001
    endloop
  endfacet
  facet normal -2.233937e-016 1.000000e+000 2.646847e-017
    outer loop
      vertex   5.000000e+000 0.000000e+000 -5.000000e+000
      vertex   1.500000e+001 1.836910e-015 1.000000e+001
      vertex   1.493961e+001 2.220446e-015 -5.000000e+000
    endloop
  endfacet
  facet normal -1.836910e-016 1.000000e+000 0.000000e+000
    outer loop
      vertex   5.000000e+000 0.000000e+000 -5.000000e+000
      vertex   5.000000e+000 0.000000e+000 1.000000e+001
      vertex   1.500000e+001 1.836910e-015 1.000000e+001
    endloop
  endfacet
  facet normal 6.351095e-015 1.000000e+000 0.000000e+000
    outer loop
      vertex   1.500000e+001 1.836910e-015 1.000000e+001
      vertex   1.500000e+001 1.836910e-015 -1.000000e+001
      vertex   1.493961e+001 2.220446e-015 -5.000000e+000
    endloop
  endfacet
  facet normal 6.351095e-015 1.000000e+000 0.000000e+000
    outer loop
      vertex   1.493961e+001 2.220446e-015 -5.000000e+000
      vertex   1.500000e+001 1.836910e-015 -1.000000e+001
      vertex   1.493961e+001 2.220446e-015 -1.000000e+001
    endloop
  endfacet
  facet normal 1.000000e+000 0.000000e+000 0.000000e+000
    outer loop
      vertex   1.500000e+001 1.836910e-015 1.000000e+001
      vertex   1.500000e+001 -5.000000e+000 1.000000e+001
      vertex   1.500000e+001 1.836910e-015 -1.000000e+001
    endloop
  endfacet
  facet normal 1.000000e+000 0.000000e+000 0.000000e+000
    outer loop
      vertex   1.500000e+001 1.836910e-015 -1.000000e+001
      vertex   1.500000e+001 -5.000000e+000 1.000000e+001
      vertex   1.500000e+001 -5.000000e+000 -1.000000e+001
    endloop
  endfacet
  facet normal -1.000000e+000 -2.220446e-016 0.000000e+000
    outer loop
      vertex   -1.000000e+001 0.000000e+000 -5.000000e+000
      vertex   -1.000000e+001 -5.000000e+000 -5.000000e+000
      vertex   -1.000000e+001 0.000000e+000 1.000000e+001
    endloop
  endfacet
  facet normal -1.000000e+000 -2.220446e-016 0.000000e+000
    outer loop
      vertex   -1.000000e+001 0.000000e+000 1.000000e+001
      vertex   -1.000000e+001 -5.000000e+000 -5.000000e+000
      vertex   -1.000000e+001 -5.000000e+000 1.000000e+001
    endloop
  endfacet
  facet normal 0.000000e+000 1.000000e+000 -0.000000e+000
    outer loop
      vertex   0.000000e+000 0.000000e+000 -5.000000e+000
      vertex   -1.000000e+001 0.000000e+000 -5.000000e+000
      vertex   0.000000e+000 0.000000e+000 1.000000e+001
    endloop
  endfacet
  facet normal 0.000000e+000 1.000000e+000 -0.000000e+000
    outer loop
      vertex   0.000000e+000 0.000000e+000 1.000000e+001
      vertex   -1.000000e+001 0.000000e+000 -5.000000e+000
      vertex   -1.000000e+001 0.000000e+000 1.000000e+001
    endloop
  endfacet
  facet normal -1.000000e+000 -1.224606e-016 0.000000e+000
    outer loop
      vertex   -1.224606e-015 1.000000e+001 -5.000000e+000
      vertex   0.000000e+000 0.000000e+000 -5.000000e+000
      vertex   -1.224606e-015 1.000000e+001 1.000000e+001
    endloop
  endfacet
  facet normal -1.000000e+000 -1.224606e-016 0.000000e+000
    outer loop
      vertex   -1.224606e-015 1.000000e+001 1.000000e+001
      vertex   0.000000e+000 0.000000e+000 -5.000000e+000
      vertex   0.000000e+000 0.000000e+000 1.000000e+001
    endloop
  endfacet
  facet normal 0.000000e+000 0.000000e+000 1.000000e+000
    outer loop
      vertex   5.000000e+000 1.000000e+001 1.000000e+001
      vertex   -1.224606e-015 1.000000e+001 1.000000e+001
      vertex   5.000000e+000 0.000000e+000 1.000000e+001
    endloop
  endfacet
  facet normal 0.000000e+000 0.000000e+000 1.000000e+000
    outer loop
      vertex   5.000000e+000 0.000000e+000 1.000000e+001
      vertex   -1.224606e-015 1.000000e+001 1.000000e+001
      vertex   0.000000e+000 0.000000e+000 1.000000e+001
    endloop
  endfacet
  facet normal 0.000000e+000 0.000000e+000 1.000000e+000
    outer loop
      vertex   5.000000e+000 -5.000000e+000 1.000000e+001
      vertex   0.000000e+000 0.000000e+000 1.000000e+001
      vertex   5.781723e-016 -5.000000e+000 1.000000e+001
    endloop
  endfacet
  facet normal 0.000000e+000 0.000000e+000 1.000000e+000
    outer loop
      vertex   5.000000e+000 -1.500000e+001 1.000000e+001
      vertex   5.781723e-016 -5.000000e+000 1.000000e+001
      vertex   2.775558e-015 -1.500000e+001 1.000000e+001
    endloop
  endfacet
  facet normal 0.000000e+000 -0.000000e+000 1.000000e+000
    outer loop
      vertex   5.000000e+000 -1.500000e+001 1.000000e+001
      vertex   5.000000e+000 -5.000000e+000 1.000000e+001
      vertex   5.781723e-016 -5.000000e+000 1.000000e+001
    endloop
  endfacet
  facet normal 0.000000e+000 0.000000e+000 1.000000e+000
    outer loop
      vertex   0.000000e+000 0.000000e+000 1.000000e+001
      vertex   -1.000000e+001 0.000000e+000 1.000000e+001
      vertex   5.781723e-016 -5.000000e+000 1.000000e+001
    endloop
  endfacet
  facet normal 0.000000e+000 0.000000e+000 1.000000e+000
    outer loop
      vertex   5.781723e-016 -5.000000e+000 1.000000e+001
      vertex   -1.000000e+001 0.000000e+000 1.000000e+001
      vertex   -1.000000e+001 -5.000000e+000 1.000000e+001
    endloop
  endfacet
  facet normal -0.000000e+000 0.000000e+000 1.000000e+000
    outer loop
      vertex   0.000000e+000 0.000000e+000 1.000000e+001
      vertex   5.000000e+000 -5.000000e+000 1.000000e+001
      vertex   5.000000e+000 0.000000e+000 1.000000e+001
    endloop
  endfacet
  facet normal -0.000000e+000 0.000000e+000 1.000000e+000
    outer loop
      vertex   5.000000e+000 0.000000e+000 1.000000e+001
      vertex   5.000000e+000 -5.000000e+000 1.000000e+001
      vertex   1.500000e+001 -5.000000e+000 1.000000e+001
    endloop
  endfacet
  facet normal 0.000000e+000 0.000000e+000 1.000000e+000
    outer loop
      vertex   1.500000e+001 1.836910e-015 1.000000e+001
      vertex   5.000000e+000 0.000000e+000 1.000000e+001
      vertex   1.500000e+001 -5.000000e+000 1.000000e+001
    endloop
  endfacet
endsolid
